# MagicaVoxel @ Ephtracy

# material
mtllib AmmoPickup.mtl
usemtl palette

# normals
vn -1 0 0
vn 1 0 0
vn 0 0 1
vn 0 0 -1
vn 0 -1 0
vn 0 1 0

# texcoords
vt 0.0214844 0.5
vt 0.0683594 0.5
vt 0.845703 0.5

# verts
v -1 0 4
v -1 0 2
v -1 0 1
v -1 0 -1
v -1 0 -2
v -1 0 -4
v -1 1 4
v -1 1 2
v -1 1 1
v -1 1 -1
v -1 1 -2
v -1 1 -4
v -1 3 4
v -1 3 2
v -1 3 1
v -1 3 -1
v -1 3 -2
v -1 3 -4
v -1 7 4
v -1 7 2
v -1 7 1
v -1 7 -1
v -1 7 -2
v -1 7 -4
v 1 0 4
v 1 0 2
v 1 0 1
v 1 0 -1
v 1 0 -2
v 1 0 -4
v 1 1 4
v 1 1 2
v 1 1 1
v 1 1 -1
v 1 1 -2
v 1 1 -4
v 1 3 4
v 1 3 2
v 1 3 1
v 1 3 -1
v 1 3 -2
v 1 3 -4
v 1 7 4
v 1 7 2
v 1 7 1
v 1 7 -1
v 1 7 -2
v 1 7 -4
v -1 0 4
v -1 1 4
v -1 3 4
v -1 7 4
v 1 0 4
v 1 1 4
v 1 3 4
v 1 7 4
v -1 0 1
v -1 1 1
v -1 3 1
v -1 7 1
v 1 0 1
v 1 1 1
v 1 3 1
v 1 7 1
v -1 0 -2
v -1 1 -2
v -1 3 -2
v -1 7 -2
v 1 0 -2
v 1 1 -2
v 1 3 -2
v 1 7 -2
v -1 0 2
v -1 1 2
v -1 3 2
v -1 7 2
v 1 0 2
v 1 1 2
v 1 3 2
v 1 7 2
v -1 0 -1
v -1 1 -1
v -1 3 -1
v -1 7 -1
v 1 0 -1
v 1 1 -1
v 1 3 -1
v 1 7 -1
v -1 0 -4
v -1 1 -4
v -1 3 -4
v -1 7 -4
v 1 0 -4
v 1 1 -4
v 1 3 -4
v 1 7 -4
v -1 0 4
v 1 0 4
v -1 0 2
v 1 0 2
v -1 0 1
v 1 0 1
v -1 0 -1
v 1 0 -1
v -1 0 -2
v 1 0 -2
v -1 0 -4
v 1 0 -4
v -1 7 4
v 1 7 4
v -1 7 2
v 1 7 2
v -1 7 1
v 1 7 1
v -1 7 -1
v 1 7 -1
v -1 7 -2
v 1 7 -2
v -1 7 -4
v 1 7 -4

# faces
f 7/1/1 2/1/1 1/1/1
f 8/1/1 2/1/1 7/1/1
f 9/1/1 4/1/1 3/1/1
f 10/1/1 4/1/1 9/1/1
f 11/1/1 6/1/1 5/1/1
f 12/1/1 6/1/1 11/1/1
f 13/2/1 8/2/1 7/2/1
f 14/2/1 8/2/1 13/2/1
f 15/2/1 10/2/1 9/2/1
f 16/2/1 10/2/1 15/2/1
f 17/2/1 12/2/1 11/2/1
f 18/2/1 12/2/1 17/2/1
f 19/3/1 14/3/1 13/3/1
f 20/3/1 14/3/1 19/3/1
f 21/3/1 16/3/1 15/3/1
f 22/3/1 16/3/1 21/3/1
f 23/3/1 18/3/1 17/3/1
f 24/3/1 18/3/1 23/3/1
f 25/1/2 26/1/2 31/1/2
f 31/1/2 26/1/2 32/1/2
f 27/1/2 28/1/2 33/1/2
f 33/1/2 28/1/2 34/1/2
f 29/1/2 30/1/2 35/1/2
f 35/1/2 30/1/2 36/1/2
f 31/2/2 32/2/2 37/2/2
f 37/2/2 32/2/2 38/2/2
f 33/2/2 34/2/2 39/2/2
f 39/2/2 34/2/2 40/2/2
f 35/2/2 36/2/2 41/2/2
f 41/2/2 36/2/2 42/2/2
f 37/3/2 38/3/2 43/3/2
f 43/3/2 38/3/2 44/3/2
f 39/3/2 40/3/2 45/3/2
f 45/3/2 40/3/2 46/3/2
f 41/3/2 42/3/2 47/3/2
f 47/3/2 42/3/2 48/3/2
f 53/1/3 50/1/3 49/1/3
f 54/2/3 51/2/3 50/2/3
f 54/1/3 50/1/3 53/1/3
f 55/3/3 52/3/3 51/3/3
f 55/2/3 51/2/3 54/2/3
f 56/3/3 52/3/3 55/3/3
f 61/1/3 58/1/3 57/1/3
f 62/2/3 59/2/3 58/2/3
f 62/1/3 58/1/3 61/1/3
f 63/3/3 60/3/3 59/3/3
f 63/2/3 59/2/3 62/2/3
f 64/3/3 60/3/3 63/3/3
f 69/1/3 66/1/3 65/1/3
f 70/2/3 67/2/3 66/2/3
f 70/1/3 66/1/3 69/1/3
f 71/3/3 68/3/3 67/3/3
f 71/2/3 67/2/3 70/2/3
f 72/3/3 68/3/3 71/3/3
f 73/1/4 74/1/4 77/1/4
f 74/2/4 75/2/4 78/2/4
f 77/1/4 74/1/4 78/1/4
f 75/3/4 76/3/4 79/3/4
f 78/2/4 75/2/4 79/2/4
f 79/3/4 76/3/4 80/3/4
f 81/1/4 82/1/4 85/1/4
f 82/2/4 83/2/4 86/2/4
f 85/1/4 82/1/4 86/1/4
f 83/3/4 84/3/4 87/3/4
f 86/2/4 83/2/4 87/2/4
f 87/3/4 84/3/4 88/3/4
f 89/1/4 90/1/4 93/1/4
f 90/2/4 91/2/4 94/2/4
f 93/1/4 90/1/4 94/1/4
f 91/3/4 92/3/4 95/3/4
f 94/2/4 91/2/4 95/2/4
f 95/3/4 92/3/4 96/3/4
f 99/1/5 98/1/5 97/1/5
f 100/1/5 98/1/5 99/1/5
f 103/1/5 102/1/5 101/1/5
f 104/1/5 102/1/5 103/1/5
f 107/1/5 106/1/5 105/1/5
f 108/1/5 106/1/5 107/1/5
f 109/3/6 110/3/6 111/3/6
f 111/3/6 110/3/6 112/3/6
f 113/3/6 114/3/6 115/3/6
f 115/3/6 114/3/6 116/3/6
f 117/3/6 118/3/6 119/3/6
f 119/3/6 118/3/6 120/3/6
