# MagicaVoxel @ Ephtracy

# material
mtllib AcidRatSpit.mtl
usemtl palette

# normals
vn -1 0 0
vn 1 0 0
vn 0 0 1
vn 0 0 -1
vn 0 -1 0
vn 0 1 0

# texcoords
vt 0.841797 0.5
vt 0.845703 0.5
vt 0.857422 0.5
vt 0.869141 0.5
vt 0.873047 0.5
vt 0.876953 0.5
vt 0.880859 0.5
vt 0.884766 0.5
vt 0.904297 0.5
vt 0.958984 0.5
vt 0.966797 0.5
vt 0.978516 0.5
vt 0.982422 0.5
vt 0.990234 0.5
vt 0.994141 0.5

# verts
v -6 0 11
v -6 0 1
v -6 0 -2
v -6 0 -12
v -6 5 11
v -6 5 9
v -6 5 3
v -6 5 1
v -6 5 -2
v -6 5 -4
v -6 5 -10
v -6 5 -12
v -6 7 9
v -6 7 3
v -6 7 -4
v -6 7 -10
v -4 0 15
v -4 0 11
v -4 0 1
v -4 0 -2
v -4 0 -12
v -4 0 -14
v -4 0 -17
v -4 0 -20
v -4 3 15
v -4 3 13
v -4 3 -17
v -4 3 -20
v -4 5 15
v -4 5 13
v -4 5 11
v -4 5 1
v -4 5 -2
v -4 5 -12
v -4 5 -14
v -2 0 20
v -2 0 19
v -2 0 18
v -2 0 15
v -2 0 -14
v -2 0 -17
v -2 1 20
v -2 1 19
v -2 1 18
v -2 1 17
v -2 1 -18
v -2 1 -19
v -2 2 18
v -2 2 17
v -2 2 -18
v -2 2 -19
v -2 3 19
v -2 3 18
v -2 3 17
v -2 3 15
v -2 3 -14
v -2 3 -17
v -2 4 20
v -2 4 19
v -2 4 18
v -2 4 17
v -2 5 20
v -2 5 18
v 0 1 16
v 0 1 14
v 0 1 -13
v 0 1 -14
v 0 1 -17
v 0 2 16
v 0 2 14
v 0 2 -13
v 0 2 -14
v 0 2 -17
v 2 1 14
v 2 1 10
v 2 1 2
v 2 1 -3
v 2 1 -11
v 2 1 -13
v 2 3 14
v 2 3 13
v 2 4 14
v 2 4 13
v 2 4 10
v 2 4 2
v 2 4 1
v 2 4 -3
v 2 4 -11
v 2 4 -13
v 4 1 10
v 4 1 2
v 4 1 -3
v 4 1 -11
v 4 4 10
v 4 4 8
v 4 4 4
v 4 4 2
v 4 4 -3
v 4 4 -5
v 4 4 -9
v 4 4 -11
v 4 5 8
v 4 5 4
v 4 5 -5
v 4 5 -9
v 4 6 8
v 4 6 4
v 4 6 -5
v 4 6 -9
v -5 1 10
v -5 1 2
v -5 1 -3
v -5 1 -11
v -5 4 10
v -5 4 8
v -5 4 4
v -5 4 2
v -5 4 -3
v -5 4 -5
v -5 4 -9
v -5 4 -11
v -5 5 8
v -5 5 4
v -5 5 -5
v -5 5 -9
v -5 6 8
v -5 6 4
v -5 6 -5
v -5 6 -9
v -3 1 14
v -3 1 10
v -3 1 2
v -3 1 -3
v -3 1 -11
v -3 1 -13
v -3 1 -18
v -3 1 -19
v -3 2 -18
v -3 2 -19
v -3 3 14
v -3 3 13
v -3 4 14
v -3 4 13
v -3 4 10
v -3 4 2
v -3 4 1
v -3 4 -3
v -3 4 -11
v -3 4 -13
v -1 0 -18
v -1 0 -20
v -1 1 16
v -1 1 14
v -1 1 -13
v -1 1 -14
v -1 1 -17
v -1 2 16
v -1 2 14
v -1 2 -13
v -1 2 -14
v -1 2 -17
v -1 3 -18
v -1 3 -20
v 1 0 20
v 1 0 19
v 1 0 15
v 1 0 -14
v 1 0 -18
v 1 1 20
v 1 1 19
v 1 1 18
v 1 1 17
v 1 2 18
v 1 2 17
v 1 3 19
v 1 3 18
v 1 3 17
v 1 3 15
v 1 3 -14
v 1 3 -18
v 1 4 20
v 1 4 19
v 1 4 18
v 1 4 17
v 1 5 20
v 1 5 18
v 3 0 15
v 3 0 11
v 3 0 1
v 3 0 -2
v 3 0 -12
v 3 0 -14
v 3 3 15
v 3 3 13
v 3 5 15
v 3 5 13
v 3 5 11
v 3 5 1
v 3 5 -2
v 3 5 -12
v 3 5 -14
v 5 0 11
v 5 0 1
v 5 0 -2
v 5 0 -12
v 5 5 11
v 5 5 9
v 5 5 3
v 5 5 1
v 5 5 -2
v 5 5 -4
v 5 5 -10
v 5 5 -12
v 5 7 9
v 5 7 3
v 5 7 -4
v 5 7 -10
v -2 0 20
v -2 1 20
v -2 4 20
v -2 5 20
v 0 0 20
v 0 1 20
v 1 0 20
v 1 1 20
v 1 4 20
v 1 5 20
v -2 3 19
v -2 4 19
v 1 3 19
v 1 4 19
v -2 1 18
v -2 2 18
v -2 3 18
v -1 1 18
v -1 2 18
v -1 3 18
v 0 1 18
v 0 2 18
v 1 1 18
v 1 2 18
v 1 3 18
v -4 0 15
v -4 3 15
v -4 5 15
v -2 0 15
v -2 3 15
v -2 5 15
v 1 0 15
v 1 3 15
v 1 5 15
v 3 0 15
v 3 3 15
v 3 5 15
v -6 0 11
v -6 5 11
v -4 0 11
v -4 5 11
v 3 0 11
v 3 5 11
v 5 0 11
v 5 5 11
v -6 5 9
v -6 7 9
v 5 5 9
v 5 7 9
v -5 4 4
v -5 5 4
v -5 6 4
v 4 4 4
v 4 5 4
v 4 6 4
v -5 1 2
v -5 4 2
v -3 1 2
v -3 4 2
v 2 1 2
v 2 4 2
v 4 1 2
v 4 4 2
v -6 0 -2
v -6 5 -2
v -4 0 -2
v -4 5 -2
v 3 0 -2
v 3 5 -2
v 5 0 -2
v 5 5 -2
v -6 5 -4
v -6 7 -4
v -2 5 -4
v -1 5 -4
v 0 5 -4
v 5 5 -4
v 5 7 -4
v -5 4 -9
v -5 5 -9
v -5 6 -9
v 4 4 -9
v 4 5 -9
v 4 6 -9
v -5 1 -11
v -5 4 -11
v -3 1 -11
v -3 4 -11
v 2 1 -11
v 2 4 -11
v 4 1 -11
v 4 4 -11
v -3 1 -13
v -3 4 -13
v -1 1 -13
v -1 2 -13
v 0 1 -13
v 0 2 -13
v 2 1 -13
v 2 4 -13
v -4 0 -17
v -4 3 -17
v -2 0 -17
v -2 3 -17
v -1 1 -17
v -1 2 -17
v 0 1 -17
v 0 2 -17
v -3 1 -19
v -3 2 -19
v -2 1 -19
v -2 2 -19
v -2 4 18
v -2 5 18
v 1 4 18
v 1 5 18
v -2 3 17
v -2 4 17
v 1 3 17
v 1 4 17
v -1 1 16
v -1 2 16
v 0 1 16
v 0 2 16
v -3 1 14
v -3 3 14
v -3 4 14
v -2 3 14
v -2 4 14
v -1 1 14
v -1 2 14
v 0 1 14
v 0 2 14
v 1 3 14
v 1 4 14
v 2 1 14
v 2 3 14
v 2 4 14
v -5 1 10
v -5 4 10
v -3 1 10
v -3 4 10
v 2 1 10
v 2 4 10
v 4 1 10
v 4 4 10
v -5 4 8
v -5 5 8
v -5 6 8
v 4 4 8
v 4 5 8
v 4 6 8
v -6 5 3
v -6 7 3
v -2 5 3
v -1 5 3
v 0 5 3
v 2 5 3
v 5 5 3
v 5 7 3
v -6 0 1
v -6 5 1
v -4 0 1
v -4 5 1
v 3 0 1
v 3 5 1
v 5 0 1
v 5 5 1
v -5 1 -3
v -5 4 -3
v -3 1 -3
v -3 4 -3
v 2 1 -3
v 2 4 -3
v 4 1 -3
v 4 4 -3
v -5 4 -5
v -5 5 -5
v -5 6 -5
v 4 4 -5
v 4 5 -5
v 4 6 -5
v -6 5 -10
v -6 7 -10
v 5 5 -10
v 5 7 -10
v -6 0 -12
v -6 5 -12
v -4 0 -12
v -4 5 -12
v 3 0 -12
v 3 5 -12
v 5 0 -12
v 5 5 -12
v -4 0 -14
v -4 5 -14
v -2 0 -14
v -2 3 -14
v 1 0 -14
v 1 3 -14
v 3 0 -14
v 3 5 -14
v -3 1 -18
v -3 2 -18
v -2 1 -18
v -2 2 -18
v -1 0 -18
v -1 3 -18
v 1 0 -18
v 1 3 -18
v -4 0 -20
v -4 3 -20
v -1 0 -20
v -1 3 -20
v -2 0 20
v 0 0 20
v 1 0 20
v -2 0 19
v -1 0 19
v 0 0 19
v 1 0 19
v -2 0 18
v -1 0 18
v -4 0 15
v -2 0 15
v 1 0 15
v 3 0 15
v -6 0 11
v -4 0 11
v 3 0 11
v 5 0 11
v -6 0 1
v -4 0 1
v 3 0 1
v 5 0 1
v -6 0 -2
v -4 0 -2
v 3 0 -2
v 5 0 -2
v -6 0 -12
v -4 0 -12
v 3 0 -12
v 5 0 -12
v -4 0 -14
v -2 0 -14
v 1 0 -14
v 3 0 -14
v -4 0 -17
v -2 0 -17
v -1 0 -18
v 1 0 -18
v -4 0 -20
v -1 0 -20
v -1 2 16
v 0 2 16
v -1 2 14
v 0 2 14
v -1 2 -13
v 0 2 -13
v -1 2 -14
v 0 2 -14
v -1 2 -17
v 0 2 -17
v -3 2 -18
v -2 2 -18
v -3 2 -19
v -2 2 -19
v -2 3 19
v 1 3 19
v -2 3 18
v -1 3 18
v 1 3 18
v -2 4 20
v 1 4 20
v -2 4 19
v 1 4 19
v -3 4 14
v -2 4 14
v 1 4 14
v 2 4 14
v -3 4 13
v -2 4 13
v 1 4 13
v 2 4 13
v -5 4 10
v -3 4 10
v 2 4 10
v 4 4 10
v -5 4 8
v 4 4 8
v -5 4 4
v 4 4 4
v -2 4 3
v -1 4 3
v 0 4 3
v 2 4 3
v -5 4 2
v -3 4 2
v -2 4 2
v -1 4 2
v 0 4 2
v 1 4 2
v 2 4 2
v 4 4 2
v -3 4 1
v -2 4 1
v -1 4 1
v 0 4 1
v 1 4 1
v 2 4 1
v -2 4 -0
v -1 4 -0
v 0 4 -0
v 1 4 -0
v -2 4 -1
v -1 4 -1
v 0 4 -1
v 1 4 -1
v -2 4 -2
v -1 4 -2
v 0 4 -2
v 1 4 -2
v -5 4 -3
v -3 4 -3
v -2 4 -3
v -1 4 -3
v 0 4 -3
v 1 4 -3
v 2 4 -3
v 4 4 -3
v -2 4 -4
v -1 4 -4
v 0 4 -4
v -5 4 -5
v 4 4 -5
v -5 4 -9
v 4 4 -9
v -5 4 -11
v -3 4 -11
v 2 4 -11
v 4 4 -11
v -3 4 -13
v 2 4 -13
v -5 6 8
v 4 6 8
v -5 6 4
v 4 6 4
v -5 6 -5
v 4 6 -5
v -5 6 -9
v 4 6 -9
v -2 1 20
v 0 1 20
v 1 1 20
v -2 1 19
v -1 1 19
v 0 1 19
v 1 1 19
v -2 1 18
v -1 1 18
v 0 1 18
v 1 1 18
v -1 1 16
v 0 1 16
v -3 1 14
v -1 1 14
v 0 1 14
v 2 1 14
v -5 1 10
v -3 1 10
v 2 1 10
v 4 1 10
v -5 1 2
v -3 1 2
v 2 1 2
v 4 1 2
v -5 1 -3
v -3 1 -3
v 2 1 -3
v 4 1 -3
v -5 1 -11
v -3 1 -11
v 2 1 -11
v 4 1 -11
v -3 1 -13
v -1 1 -13
v 0 1 -13
v 2 1 -13
v -1 1 -14
v 0 1 -14
v -1 1 -17
v 0 1 -17
v -3 1 -18
v -2 1 -18
v -3 1 -19
v -2 1 -19
v -2 3 17
v 1 3 17
v -2 3 15
v 1 3 15
v -2 3 -14
v 1 3 -14
v -4 3 -17
v -2 3 -17
v -1 3 -18
v 1 3 -18
v -4 3 -20
v -1 3 -20
v -2 4 18
v 1 4 18
v -2 4 17
v 1 4 17
v -2 5 20
v 1 5 20
v -2 5 18
v 1 5 18
v -4 5 15
v -2 5 15
v 1 5 15
v 3 5 15
v -4 5 13
v -2 5 13
v 1 5 13
v 3 5 13
v -6 5 11
v -4 5 11
v 3 5 11
v 5 5 11
v -6 5 9
v 5 5 9
v -6 5 3
v -2 5 3
v -1 5 3
v 0 5 3
v 2 5 3
v 5 5 3
v -3 5 2
v -2 5 2
v -1 5 2
v 0 5 2
v 1 5 2
v 2 5 2
v -6 5 1
v -4 5 1
v -3 5 1
v -2 5 1
v -1 5 1
v 0 5 1
v 1 5 1
v 2 5 1
v 3 5 1
v 5 5 1
v -2 5 -0
v -1 5 -0
v 0 5 -0
v 1 5 -0
v -2 5 -1
v -1 5 -1
v 0 5 -1
v 1 5 -1
v -6 5 -2
v -4 5 -2
v -2 5 -2
v -1 5 -2
v 0 5 -2
v 1 5 -2
v 3 5 -2
v 5 5 -2
v -2 5 -3
v -1 5 -3
v 0 5 -3
v 1 5 -3
v -6 5 -4
v -2 5 -4
v -1 5 -4
v 0 5 -4
v 5 5 -4
v -6 5 -10
v 5 5 -10
v -6 5 -12
v -4 5 -12
v 3 5 -12
v 5 5 -12
v -4 5 -14
v 3 5 -14
v -6 7 9
v 5 7 9
v -6 7 3
v 5 7 3
v -6 7 -4
v 5 7 -4
v -6 7 -10
v 5 7 -10

# faces
f 5/14/1 2/14/1 1/14/1
f 6/14/1 2/14/1 5/14/1
f 7/14/1 2/14/1 6/14/1
f 8/14/1 2/14/1 7/14/1
f 9/14/1 4/14/1 3/14/1
f 10/14/1 4/14/1 9/14/1
f 11/14/1 4/14/1 10/14/1
f 12/14/1 4/14/1 11/14/1
f 13/9/1 7/9/1 6/9/1
f 14/9/1 7/9/1 13/9/1
f 15/9/1 11/9/1 10/9/1
f 16/9/1 11/9/1 15/9/1
f 25/14/1 18/14/1 17/14/1
f 26/14/1 18/14/1 25/14/1
f 27/9/1 24/9/1 23/9/1
f 28/9/1 24/9/1 27/9/1
f 29/7/1 26/7/1 25/7/1
f 30/14/1 18/14/1 26/14/1
f 30/7/1 26/7/1 29/7/1
f 31/14/1 18/14/1 30/14/1
f 32/14/1 20/14/1 19/14/1
f 33/14/1 20/14/1 32/14/1
f 34/14/1 22/14/1 21/14/1
f 35/14/1 22/14/1 34/14/1
f 42/14/1 37/14/1 36/14/1
f 43/7/1 38/7/1 37/7/1
f 43/14/1 37/14/1 42/14/1
f 44/14/1 39/14/1 38/14/1
f 44/7/1 38/7/1 43/7/1
f 45/14/1 39/14/1 44/14/1
f 48/8/1 45/8/1 44/8/1
f 49/14/1 39/14/1 45/14/1
f 49/8/1 45/8/1 48/8/1
f 50/9/1 47/9/1 46/9/1
f 51/9/1 47/9/1 50/9/1
f 53/7/1 49/7/1 48/7/1
f 54/14/1 39/14/1 49/14/1
f 54/7/1 49/7/1 53/7/1
f 55/14/1 39/14/1 54/14/1
f 56/9/1 41/9/1 40/9/1
f 57/9/1 41/9/1 56/9/1
f 59/14/1 53/14/1 52/14/1
f 59/14/1 54/14/1 53/14/1
f 60/14/1 54/14/1 59/14/1
f 61/14/1 54/14/1 60/14/1
f 62/14/1 59/14/1 58/14/1
f 62/14/1 60/14/1 59/14/1
f 63/14/1 60/14/1 62/14/1
f 69/14/1 65/14/1 64/14/1
f 70/14/1 65/14/1 69/14/1
f 71/14/1 67/14/1 66/14/1
f 72/9/1 68/9/1 67/9/1
f 72/14/1 67/14/1 71/14/1
f 73/9/1 68/9/1 72/9/1
f 80/14/1 75/14/1 74/14/1
f 81/14/1 75/14/1 80/14/1
f 82/7/1 81/7/1 80/7/1
f 83/14/1 75/14/1 81/14/1
f 83/7/1 81/7/1 82/7/1
f 84/14/1 75/14/1 83/14/1
f 85/14/1 77/14/1 76/14/1
f 86/14/1 77/14/1 85/14/1
f 87/14/1 77/14/1 86/14/1
f 88/14/1 79/14/1 78/14/1
f 89/14/1 79/14/1 88/14/1
f 94/14/1 91/14/1 90/14/1
f 95/14/1 91/14/1 94/14/1
f 96/14/1 91/14/1 95/14/1
f 97/14/1 91/14/1 96/14/1
f 98/14/1 93/14/1 92/14/1
f 99/14/1 93/14/1 98/14/1
f 100/14/1 93/14/1 99/14/1
f 101/14/1 93/14/1 100/14/1
f 102/14/1 96/14/1 95/14/1
f 103/14/1 96/14/1 102/14/1
f 104/14/1 100/14/1 99/14/1
f 105/14/1 100/14/1 104/14/1
f 106/9/1 103/9/1 102/9/1
f 107/9/1 103/9/1 106/9/1
f 108/9/1 105/9/1 104/9/1
f 109/9/1 105/9/1 108/9/1
f 110/14/2 111/14/2 114/14/2
f 114/14/2 111/14/2 115/14/2
f 115/14/2 111/14/2 116/14/2
f 116/14/2 111/14/2 117/14/2
f 112/14/2 113/14/2 118/14/2
f 118/14/2 113/14/2 119/14/2
f 119/14/2 113/14/2 120/14/2
f 120/14/2 113/14/2 121/14/2
f 115/14/2 116/14/2 122/14/2
f 122/14/2 116/14/2 123/14/2
f 119/14/2 120/14/2 124/14/2
f 124/14/2 120/14/2 125/14/2
f 122/9/2 123/9/2 126/9/2
f 126/9/2 123/9/2 127/9/2
f 124/9/2 125/9/2 128/9/2
f 128/9/2 125/9/2 129/9/2
f 136/9/2 137/9/2 138/9/2
f 138/9/2 137/9/2 139/9/2
f 130/14/2 131/14/2 140/14/2
f 140/14/2 131/14/2 141/14/2
f 140/7/2 141/7/2 142/7/2
f 141/14/2 131/14/2 143/14/2
f 142/7/2 141/7/2 143/7/2
f 143/14/2 131/14/2 144/14/2
f 132/14/2 133/14/2 145/14/2
f 145/14/2 133/14/2 146/14/2
f 146/14/2 133/14/2 147/14/2
f 134/14/2 135/14/2 148/14/2
f 148/14/2 135/14/2 149/14/2
f 152/14/2 153/14/2 157/14/2
f 157/14/2 153/14/2 158/14/2
f 154/14/2 155/14/2 159/14/2
f 155/9/2 156/9/2 160/9/2
f 159/14/2 155/14/2 160/14/2
f 160/9/2 156/9/2 161/9/2
f 150/9/2 151/9/2 162/9/2
f 162/9/2 151/9/2 163/9/2
f 164/7/2 165/7/2 169/7/2
f 165/14/2 166/14/2 170/14/2
f 169/7/2 165/7/2 170/7/2
f 170/14/2 166/14/2 171/14/2
f 171/14/2 166/14/2 172/14/2
f 171/7/2 172/7/2 173/7/2
f 172/14/2 166/14/2 174/14/2
f 173/7/2 172/7/2 174/7/2
f 173/15/2 174/15/2 176/15/2
f 174/14/2 166/14/2 177/14/2
f 176/15/2 174/15/2 177/15/2
f 177/14/2 166/14/2 178/14/2
f 167/9/2 168/9/2 179/9/2
f 179/9/2 168/9/2 180/9/2
f 175/14/2 176/14/2 182/14/2
f 176/14/2 177/14/2 182/14/2
f 182/14/2 177/14/2 183/14/2
f 183/14/2 177/14/2 184/14/2
f 181/14/2 182/14/2 185/14/2
f 182/14/2 183/14/2 185/14/2
f 185/14/2 183/14/2 186/14/2
f 187/14/2 188/14/2 193/14/2
f 193/14/2 188/14/2 194/14/2
f 193/7/2 194/7/2 195/7/2
f 194/14/2 188/14/2 196/14/2
f 195/7/2 194/7/2 196/7/2
f 196/14/2 188/14/2 197/14/2
f 189/14/2 190/14/2 198/14/2
f 198/14/2 190/14/2 199/14/2
f 191/14/2 192/14/2 200/14/2
f 200/14/2 192/14/2 201/14/2
f 202/14/2 203/14/2 206/14/2
f 206/14/2 203/14/2 207/14/2
f 207/14/2 203/14/2 208/14/2
f 208/14/2 203/14/2 209/14/2
f 204/14/2 205/14/2 210/14/2
f 210/14/2 205/14/2 211/14/2
f 211/14/2 205/14/2 212/14/2
f 212/14/2 205/14/2 213/14/2
f 207/9/2 208/9/2 214/9/2
f 214/9/2 208/9/2 215/9/2
f 211/9/2 212/9/2 216/9/2
f 216/9/2 212/9/2 217/9/2
f 222/14/3 219/14/3 218/14/3
f 223/14/3 219/14/3 222/14/3
f 224/7/3 223/7/3 222/7/3
f 225/7/3 223/7/3 224/7/3
f 226/14/3 221/14/3 220/14/3
f 227/14/3 221/14/3 226/14/3
f 230/14/3 229/14/3 228/14/3
f 231/14/3 229/14/3 230/14/3
f 235/8/3 233/8/3 232/8/3
f 236/7/3 234/7/3 233/7/3
f 236/8/3 233/8/3 235/8/3
f 237/7/3 234/7/3 236/7/3
f 238/15/3 236/15/3 235/15/3
f 238/15/3 237/15/3 236/15/3
f 239/15/3 237/15/3 238/15/3
f 240/7/3 239/7/3 238/7/3
f 241/15/3 237/15/3 239/15/3
f 241/7/3 239/7/3 240/7/3
f 242/15/3 237/15/3 241/15/3
f 246/14/3 244/14/3 243/14/3
f 247/7/3 245/7/3 244/7/3
f 247/14/3 244/14/3 246/14/3
f 248/7/3 245/7/3 247/7/3
f 250/14/3 248/14/3 247/14/3
f 251/14/3 248/14/3 250/14/3
f 252/14/3 250/14/3 249/14/3
f 253/7/3 251/7/3 250/7/3
f 253/14/3 250/14/3 252/14/3
f 254/7/3 251/7/3 253/7/3
f 257/14/3 256/14/3 255/14/3
f 258/14/3 256/14/3 257/14/3
f 261/14/3 260/14/3 259/14/3
f 262/14/3 260/14/3 261/14/3
f 265/9/3 264/9/3 263/9/3
f 266/9/3 264/9/3 265/9/3
f 270/14/3 268/14/3 267/14/3
f 271/9/3 269/9/3 268/9/3
f 271/14/3 268/14/3 270/14/3
f 272/9/3 269/9/3 271/9/3
f 275/14/3 274/14/3 273/14/3
f 276/14/3 274/14/3 275/14/3
f 279/14/3 278/14/3 277/14/3
f 280/14/3 278/14/3 279/14/3
f 283/14/3 282/14/3 281/14/3
f 284/14/3 282/14/3 283/14/3
f 287/14/3 286/14/3 285/14/3
f 288/14/3 286/14/3 287/14/3
f 291/9/3 290/9/3 289/9/3
f 292/9/3 290/9/3 291/9/3
f 293/9/3 290/9/3 292/9/3
f 294/9/3 290/9/3 293/9/3
f 295/9/3 290/9/3 294/9/3
f 299/14/3 297/14/3 296/14/3
f 300/9/3 298/9/3 297/9/3
f 300/14/3 297/14/3 299/14/3
f 301/9/3 298/9/3 300/9/3
f 304/14/3 303/14/3 302/14/3
f 305/14/3 303/14/3 304/14/3
f 308/14/3 307/14/3 306/14/3
f 309/14/3 307/14/3 308/14/3
f 312/14/3 311/14/3 310/14/3
f 313/14/3 311/14/3 312/14/3
f 315/14/3 311/14/3 313/14/3
f 316/14/3 315/14/3 314/14/3
f 317/14/3 311/14/3 315/14/3
f 317/14/3 315/14/3 316/14/3
f 320/9/3 319/9/3 318/9/3
f 321/9/3 319/9/3 320/9/3
f 324/9/3 323/9/3 322/9/3
f 325/9/3 323/9/3 324/9/3
f 328/9/3 327/9/3 326/9/3
f 329/9/3 327/9/3 328/9/3
f 330/14/4 331/14/4 332/14/4
f 332/14/4 331/14/4 333/14/4
f 334/14/4 335/14/4 336/14/4
f 336/14/4 335/14/4 337/14/4
f 338/14/4 339/14/4 340/14/4
f 340/14/4 339/14/4 341/14/4
f 342/14/4 343/14/4 345/14/4
f 343/7/4 344/7/4 345/7/4
f 345/7/4 344/7/4 346/7/4
f 342/14/4 345/14/4 347/14/4
f 345/14/4 346/14/4 347/14/4
f 347/14/4 346/14/4 348/14/4
f 348/14/4 346/14/4 350/14/4
f 350/14/4 346/14/4 351/14/4
f 349/14/4 350/14/4 351/14/4
f 351/14/4 346/14/4 352/14/4
f 349/14/4 351/14/4 353/14/4
f 351/7/4 352/7/4 354/7/4
f 353/14/4 351/14/4 354/14/4
f 354/7/4 352/7/4 355/7/4
f 356/14/4 357/14/4 358/14/4
f 358/14/4 357/14/4 359/14/4
f 360/14/4 361/14/4 362/14/4
f 362/14/4 361/14/4 363/14/4
f 364/14/4 365/14/4 367/14/4
f 365/9/4 366/9/4 368/9/4
f 367/14/4 365/14/4 368/14/4
f 368/9/4 366/9/4 369/9/4
f 370/9/4 371/9/4 372/9/4
f 372/9/4 371/9/4 373/9/4
f 373/9/4 371/9/4 374/9/4
f 374/9/4 371/9/4 375/9/4
f 375/9/4 371/9/4 376/9/4
f 376/9/4 371/9/4 377/9/4
f 378/14/4 379/14/4 380/14/4
f 380/14/4 379/14/4 381/14/4
f 382/14/4 383/14/4 384/14/4
f 384/14/4 383/14/4 385/14/4
f 386/14/4 387/14/4 388/14/4
f 388/14/4 387/14/4 389/14/4
f 390/14/4 391/14/4 392/14/4
f 392/14/4 391/14/4 393/14/4
f 394/14/4 395/14/4 397/14/4
f 395/9/4 396/9/4 398/9/4
f 397/14/4 395/14/4 398/14/4
f 398/9/4 396/9/4 399/9/4
f 400/9/4 401/9/4 402/9/4
f 402/9/4 401/9/4 403/9/4
f 404/14/4 405/14/4 406/14/4
f 406/14/4 405/14/4 407/14/4
f 408/14/4 409/14/4 410/14/4
f 410/14/4 409/14/4 411/14/4
f 412/14/4 413/14/4 414/14/4
f 414/14/4 413/14/4 415/14/4
f 415/14/4 413/14/4 417/14/4
f 416/14/4 417/14/4 418/14/4
f 417/14/4 413/14/4 419/14/4
f 418/14/4 417/14/4 419/14/4
f 420/9/4 421/9/4 422/9/4
f 422/9/4 421/9/4 423/9/4
f 424/9/4 425/9/4 426/9/4
f 426/9/4 425/9/4 427/9/4
f 428/9/4 429/9/4 430/9/4
f 430/9/4 429/9/4 431/9/4
f 435/14/5 433/14/5 432/14/5
f 436/14/5 433/14/5 435/14/5
f 437/7/5 434/7/5 433/7/5
f 437/14/5 433/14/5 436/14/5
f 438/7/5 434/7/5 437/7/5
f 439/7/5 436/7/5 435/7/5
f 440/14/5 437/14/5 436/14/5
f 440/7/5 436/7/5 439/7/5
f 440/14/5 438/14/5 437/14/5
f 442/14/5 440/14/5 439/14/5
f 443/14/5 438/14/5 440/14/5
f 443/14/5 440/14/5 442/14/5
f 446/14/5 443/14/5 442/14/5
f 446/14/5 444/14/5 443/14/5
f 446/14/5 442/14/5 441/14/5
f 447/14/5 444/14/5 446/14/5
f 449/14/5 446/14/5 445/14/5
f 449/14/5 448/14/5 447/14/5
f 449/14/5 447/14/5 446/14/5
f 450/14/5 448/14/5 449/14/5
f 451/14/5 448/14/5 450/14/5
f 452/14/5 448/14/5 451/14/5
f 454/14/5 451/14/5 450/14/5
f 455/14/5 451/14/5 454/14/5
f 457/14/5 454/14/5 453/14/5
f 457/14/5 456/14/5 455/14/5
f 457/14/5 455/14/5 454/14/5
f 458/14/5 456/14/5 457/14/5
f 459/14/5 456/14/5 458/14/5
f 460/14/5 456/14/5 459/14/5
f 461/14/5 459/14/5 458/14/5
f 462/14/5 459/14/5 461/14/5
f 463/14/5 459/14/5 462/14/5
f 464/14/5 459/14/5 463/14/5
f 466/9/5 463/9/5 462/9/5
f 467/9/5 463/9/5 466/9/5
f 467/9/5 466/9/5 465/9/5
f 468/9/5 463/9/5 467/9/5
f 469/9/5 467/9/5 465/9/5
f 470/9/5 467/9/5 469/9/5
f 473/14/5 472/14/5 471/14/5
f 474/14/5 472/14/5 473/14/5
f 477/14/5 476/14/5 475/14/5
f 478/14/5 476/14/5 477/14/5
f 479/9/5 478/9/5 477/9/5
f 480/9/5 478/9/5 479/9/5
f 483/9/5 482/9/5 481/9/5
f 484/9/5 482/9/5 483/9/5
f 487/14/5 486/14/5 485/14/5
f 488/14/5 486/14/5 487/14/5
f 489/14/5 486/14/5 488/14/5
f 492/14/5 491/14/5 490/14/5
f 493/14/5 491/14/5 492/14/5
f 498/7/5 495/7/5 494/7/5
f 499/14/5 496/14/5 495/14/5
f 499/7/5 495/7/5 498/7/5
f 500/7/5 497/7/5 496/7/5
f 500/14/5 496/14/5 499/14/5
f 501/7/5 497/7/5 500/7/5
f 503/14/5 499/14/5 498/14/5
f 503/14/5 500/14/5 499/14/5
f 503/14/5 501/14/5 500/14/5
f 504/14/5 501/14/5 503/14/5
f 506/14/5 504/14/5 503/14/5
f 506/14/5 505/14/5 504/14/5
f 506/14/5 503/14/5 502/14/5
f 507/14/5 505/14/5 506/14/5
f 510/14/5 509/14/5 508/14/5
f 511/14/5 509/14/5 510/14/5
f 512/14/5 509/14/5 511/14/5
f 513/14/5 509/14/5 512/14/5
f 514/14/5 510/14/5 508/14/5
f 515/14/5 510/14/5 514/14/5
f 516/5/5 511/5/5 510/5/5
f 516/14/5 510/14/5 515/14/5
f 517/12/5 512/12/5 511/12/5
f 517/5/5 511/5/5 516/5/5
f 518/2/5 513/2/5 512/2/5
f 518/12/5 512/12/5 517/12/5
f 519/2/5 513/2/5 518/2/5
f 520/14/5 509/14/5 513/14/5
f 520/2/5 513/2/5 519/2/5
f 521/14/5 509/14/5 520/14/5
f 522/4/5 516/4/5 515/4/5
f 522/4/5 517/4/5 516/4/5
f 523/4/5 517/4/5 522/4/5
f 524/10/5 518/10/5 517/10/5
f 524/4/5 517/4/5 523/4/5
f 525/14/5 519/14/5 518/14/5
f 525/10/5 518/10/5 524/10/5
f 526/6/5 520/6/5 519/6/5
f 526/14/5 519/14/5 525/14/5
f 527/6/5 520/6/5 526/6/5
f 528/4/5 524/4/5 523/4/5
f 528/14/5 523/14/5 522/14/5
f 529/12/5 525/12/5 524/12/5
f 529/4/5 524/4/5 528/4/5
f 530/3/5 526/3/5 525/3/5
f 530/12/5 525/12/5 529/12/5
f 531/14/5 527/14/5 526/14/5
f 531/3/5 526/3/5 530/3/5
f 532/14/5 528/14/5 522/14/5
f 532/14/5 529/14/5 528/14/5
f 533/10/5 530/10/5 529/10/5
f 533/14/5 529/14/5 532/14/5
f 534/1/5 531/1/5 530/1/5
f 534/10/5 530/10/5 533/10/5
f 535/14/5 527/14/5 531/14/5
f 535/1/5 531/1/5 534/1/5
f 536/14/5 532/14/5 522/14/5
f 536/3/5 533/3/5 532/3/5
f 537/10/5 534/10/5 533/10/5
f 537/3/5 533/3/5 536/3/5
f 538/14/5 535/14/5 534/14/5
f 538/10/5 534/10/5 537/10/5
f 539/14/5 527/14/5 535/14/5
f 539/14/5 535/14/5 538/14/5
f 541/14/5 536/14/5 522/14/5
f 541/14/5 537/14/5 536/14/5
f 542/14/5 537/14/5 541/14/5
f 543/11/5 538/11/5 537/11/5
f 543/14/5 537/14/5 542/14/5
f 544/3/5 539/3/5 538/3/5
f 544/11/5 538/11/5 543/11/5
f 545/14/5 527/14/5 539/14/5
f 545/3/5 539/3/5 544/3/5
f 546/14/5 527/14/5 545/14/5
f 548/14/5 542/14/5 541/14/5
f 548/1/5 543/1/5 542/1/5
f 548/14/5 541/14/5 540/14/5
f 549/13/5 544/13/5 543/13/5
f 549/1/5 543/1/5 548/1/5
f 550/14/5 546/14/5 545/14/5
f 550/13/5 544/13/5 549/13/5
f 550/14/5 547/14/5 546/14/5
f 550/14/5 545/14/5 544/14/5
f 551/14/5 549/14/5 548/14/5
f 551/14/5 548/14/5 540/14/5
f 551/14/5 550/14/5 549/14/5
f 552/14/5 547/14/5 550/14/5
f 552/14/5 550/14/5 551/14/5
f 555/14/5 554/14/5 553/14/5
f 556/14/5 554/14/5 555/14/5
f 557/14/5 554/14/5 556/14/5
f 558/14/5 554/14/5 557/14/5
f 559/14/5 557/14/5 556/14/5
f 560/14/5 557/14/5 559/14/5
f 563/9/5 562/9/5 561/9/5
f 564/9/5 562/9/5 563/9/5
f 567/9/5 566/9/5 565/9/5
f 568/9/5 566/9/5 567/9/5
f 569/14/6 570/14/6 572/14/6
f 572/14/6 570/14/6 573/14/6
f 570/7/6 571/7/6 574/7/6
f 573/14/6 570/14/6 574/14/6
f 574/7/6 571/7/6 575/7/6
f 572/7/6 573/7/6 576/7/6
f 573/14/6 574/14/6 577/14/6
f 576/7/6 573/7/6 577/7/6
f 574/14/6 575/14/6 577/14/6
f 577/14/6 575/14/6 578/14/6
f 578/14/6 575/14/6 579/14/6
f 580/14/6 581/14/6 583/14/6
f 583/14/6 581/14/6 584/14/6
f 583/14/6 584/14/6 587/14/6
f 584/14/6 585/14/6 587/14/6
f 582/14/6 583/14/6 587/14/6
f 587/14/6 585/14/6 588/14/6
f 586/14/6 587/14/6 590/14/6
f 588/14/6 589/14/6 590/14/6
f 587/14/6 588/14/6 590/14/6
f 590/14/6 589/14/6 591/14/6
f 591/14/6 589/14/6 592/14/6
f 592/14/6 589/14/6 593/14/6
f 591/14/6 592/14/6 595/14/6
f 595/14/6 592/14/6 596/14/6
f 594/14/6 595/14/6 598/14/6
f 596/14/6 597/14/6 598/14/6
f 595/14/6 596/14/6 598/14/6
f 598/14/6 597/14/6 599/14/6
f 599/14/6 597/14/6 600/14/6
f 600/14/6 597/14/6 601/14/6
f 599/14/6 600/14/6 602/14/6
f 602/14/6 600/14/6 603/14/6
f 603/14/6 600/14/6 604/14/6
f 604/14/6 600/14/6 605/14/6
f 603/14/6 604/14/6 606/14/6
f 606/14/6 604/14/6 607/14/6
f 606/9/6 607/9/6 608/9/6
f 608/9/6 607/9/6 609/9/6
f 610/9/6 611/9/6 612/9/6
f 612/9/6 611/9/6 613/9/6
f 614/14/6 615/14/6 616/14/6
f 616/14/6 615/14/6 617/14/6
f 618/9/6 619/9/6 621/9/6
f 621/9/6 619/9/6 622/9/6
f 620/9/6 621/9/6 622/9/6
f 622/9/6 619/9/6 623/9/6
f 620/9/6 622/9/6 624/9/6
f 624/9/6 622/9/6 625/9/6
f 626/14/6 627/14/6 628/14/6
f 628/14/6 627/14/6 629/14/6
f 630/14/6 631/14/6 632/14/6
f 632/14/6 631/14/6 633/14/6
f 634/7/6 635/7/6 638/7/6
f 635/14/6 636/14/6 639/14/6
f 638/7/6 635/7/6 639/7/6
f 636/7/6 637/7/6 640/7/6
f 639/14/6 636/14/6 640/14/6
f 640/7/6 637/7/6 641/7/6
f 638/14/6 639/14/6 643/14/6
f 639/14/6 640/14/6 643/14/6
f 640/14/6 641/14/6 643/14/6
f 643/14/6 641/14/6 644/14/6
f 643/14/6 644/14/6 646/14/6
f 644/14/6 645/14/6 646/14/6
f 642/14/6 643/14/6 646/14/6
f 646/14/6 645/14/6 647/14/6
f 648/14/6 649/14/6 654/14/6
f 649/5/6 650/5/6 655/5/6
f 654/14/6 649/14/6 655/14/6
f 650/12/6 651/12/6 656/12/6
f 655/5/6 650/5/6 656/5/6
f 651/2/6 652/2/6 657/2/6
f 656/12/6 651/12/6 657/12/6
f 657/2/6 652/2/6 658/2/6
f 652/14/6 653/14/6 659/14/6
f 658/2/6 652/2/6 659/2/6
f 648/14/6 654/14/6 660/14/6
f 660/14/6 654/14/6 661/14/6
f 654/4/6 655/4/6 662/4/6
f 661/14/6 654/14/6 662/14/6
f 655/4/6 656/4/6 662/4/6
f 662/4/6 656/4/6 663/4/6
f 656/10/6 657/10/6 664/10/6
f 663/4/6 656/4/6 664/4/6
f 657/14/6 658/14/6 665/14/6
f 664/10/6 657/10/6 665/10/6
f 658/6/6 659/6/6 666/6/6
f 665/14/6 658/14/6 666/14/6
f 659/14/6 653/14/6 667/14/6
f 666/6/6 659/6/6 667/6/6
f 667/14/6 653/14/6 668/14/6
f 668/14/6 653/14/6 669/14/6
f 663/4/6 664/4/6 670/4/6
f 662/14/6 663/14/6 670/14/6
f 661/14/6 662/14/6 670/14/6
f 664/12/6 665/12/6 671/12/6
f 670/4/6 664/4/6 671/4/6
f 665/3/6 666/3/6 672/3/6
f 671/12/6 665/12/6 672/12/6
f 667/14/6 668/14/6 673/14/6
f 672/3/6 666/3/6 673/3/6
f 666/14/6 667/14/6 673/14/6
f 670/14/6 671/14/6 674/14/6
f 661/14/6 670/14/6 674/14/6
f 671/10/6 672/10/6 675/10/6
f 674/14/6 671/14/6 675/14/6
f 672/1/6 673/1/6 676/1/6
f 675/10/6 672/10/6 676/10/6
f 673/14/6 668/14/6 677/14/6
f 676/1/6 673/1/6 677/1/6
f 661/14/6 674/14/6 679/14/6
f 674/3/6 675/3/6 680/3/6
f 679/14/6 674/14/6 680/14/6
f 675/10/6 676/10/6 681/10/6
f 680/3/6 675/3/6 681/3/6
f 676/14/6 677/14/6 682/14/6
f 681/10/6 676/10/6 682/10/6
f 677/14/6 668/14/6 683/14/6
f 682/14/6 677/14/6 683/14/6
f 683/14/6 668/14/6 684/14/6
f 679/14/6 680/14/6 686/14/6
f 678/14/6 679/14/6 686/14/6
f 680/14/6 681/14/6 686/14/6
f 681/11/6 682/11/6 687/11/6
f 686/14/6 681/14/6 687/14/6
f 682/3/6 683/3/6 688/3/6
f 687/11/6 682/11/6 688/11/6
f 684/14/6 685/14/6 689/14/6
f 688/3/6 683/3/6 689/3/6
f 683/14/6 684/14/6 689/14/6
f 678/14/6 686/14/6 690/14/6
f 686/1/6 687/1/6 691/1/6
f 690/14/6 686/14/6 691/14/6
f 687/13/6 688/13/6 692/13/6
f 691/1/6 687/1/6 692/1/6
f 688/14/6 689/14/6 693/14/6
f 692/13/6 688/13/6 693/13/6
f 689/14/6 685/14/6 694/14/6
f 693/14/6 689/14/6 694/14/6
f 695/14/6 696/14/6 697/14/6
f 697/14/6 696/14/6 698/14/6
f 698/14/6 696/14/6 699/14/6
f 699/14/6 696/14/6 700/14/6
f 698/14/6 699/14/6 701/14/6
f 701/14/6 699/14/6 702/14/6
f 703/9/6 704/9/6 705/9/6
f 705/9/6 704/9/6 706/9/6
f 707/9/6 708/9/6 709/9/6
f 709/9/6 708/9/6 710/9/6
