# MagicaVoxel @ Ephtracy

# material
mtllib GunTest.mtl
usemtl palette

# normals
vn -1 0 0
vn 1 0 0
vn 0 0 1
vn 0 0 -1
vn 0 -1 0
vn 0 1 0

# texcoords
vt 0.982422 0.5
vt 0.990234 0.5

# verts
v -3 0 -6.5
v -3 0 -9.5
v -3 7 -5.5
v -3 7 -6.5
v -3 7 -8.5
v -3 7 -9.5
v -3 9 -4.5
v -3 9 -5.5
v -3 9 -7.5
v -3 9 -8.5
v -3 11 -3.5
v -3 11 -4.5
v -3 11 -6.5
v -3 11 -7.5
v -3 13 -5.5
v -3 13 -6.5
v -3 14 11.5
v -3 14 -3.5
v -3 15 -4.5
v -3 15 -5.5
v -3 17 11.5
v -3 17 -4.5
v -2 0 -5.5
v -2 0 -6.5
v -2 0 -9.5
v -2 0 -10.5
v -2 7 -4.5
v -2 7 -5.5
v -2 7 -6.5
v -2 7 -8.5
v -2 7 -9.5
v -2 7 -10.5
v -2 9 -3.5
v -2 9 -4.5
v -2 9 -5.5
v -2 9 -7.5
v -2 9 -8.5
v -2 9 -9.5
v -2 11 -2.5
v -2 11 -3.5
v -2 11 -4.5
v -2 11 -6.5
v -2 11 -7.5
v -2 11 -8.5
v -2 13 11.5
v -2 13 -2.5
v -2 13 -5.5
v -2 13 -6.5
v -2 13 -7.5
v -2 14 12.5
v -2 14 11.5
v -2 14 -3.5
v -2 15 -4.5
v -2 15 -5.5
v -2 15 -6.5
v -2 17 12.5
v -2 17 11.5
v -2 17 -4.5
v -2 18 11.5
v -2 18 -5.5
v -1 7 -1.5
v -1 7 -4.5
v -1 8 -0.5
v -1 8 -1.5
v -1 8 -2.5
v -1 8 -4.5
v -1 9 0.5
v -1 9 -0.5
v -1 9 -1.5
v -1 9 -2.5
v -1 10 -0.5
v -1 10 -1.5
v -1 13 0.5
v -1 13 -0.5
v 1 15 12.5
v 1 15 11.5
v 1 15 4.5
v 1 16 12.5
v 1 16 11.5
v 1 16 4.5
v -1 15 12.5
v -1 15 11.5
v -1 15 4.5
v -1 16 12.5
v -1 16 11.5
v -1 16 4.5
v 1 7 -1.5
v 1 7 -4.5
v 1 8 -0.5
v 1 8 -1.5
v 1 8 -2.5
v 1 8 -4.5
v 1 9 0.5
v 1 9 -0.5
v 1 9 -1.5
v 1 9 -2.5
v 1 10 -0.5
v 1 10 -1.5
v 1 13 0.5
v 1 13 -0.5
v 2 0 -5.5
v 2 0 -6.5
v 2 0 -9.5
v 2 0 -10.5
v 2 7 -4.5
v 2 7 -5.5
v 2 7 -6.5
v 2 7 -8.5
v 2 7 -9.5
v 2 7 -10.5
v 2 9 -3.5
v 2 9 -4.5
v 2 9 -5.5
v 2 9 -7.5
v 2 9 -8.5
v 2 9 -9.5
v 2 11 -2.5
v 2 11 -3.5
v 2 11 -4.5
v 2 11 -6.5
v 2 11 -7.5
v 2 11 -8.5
v 2 13 11.5
v 2 13 -2.5
v 2 13 -5.5
v 2 13 -6.5
v 2 13 -7.5
v 2 14 12.5
v 2 14 11.5
v 2 14 -3.5
v 2 15 -4.5
v 2 15 -5.5
v 2 15 -6.5
v 2 17 12.5
v 2 17 11.5
v 2 17 -4.5
v 2 18 11.5
v 2 18 -5.5
v 3 0 -6.5
v 3 0 -9.5
v 3 7 -5.5
v 3 7 -6.5
v 3 7 -8.5
v 3 7 -9.5
v 3 9 -4.5
v 3 9 -5.5
v 3 9 -7.5
v 3 9 -8.5
v 3 11 -3.5
v 3 11 -4.5
v 3 11 -6.5
v 3 11 -7.5
v 3 13 -5.5
v 3 13 -6.5
v 3 14 11.5
v 3 14 -3.5
v 3 15 -4.5
v 3 15 -5.5
v 3 17 11.5
v 3 17 -4.5
v -2 14 12.5
v -2 17 12.5
v -1 15 12.5
v -1 16 12.5
v 1 15 12.5
v 1 16 12.5
v 2 14 12.5
v 2 17 12.5
v -3 14 11.5
v -3 17 11.5
v -2 13 11.5
v -2 14 11.5
v -2 17 11.5
v -2 18 11.5
v 2 13 11.5
v 2 14 11.5
v 2 17 11.5
v 2 18 11.5
v 3 14 11.5
v 3 17 11.5
v -1 15 4.5
v -1 16 4.5
v 1 15 4.5
v 1 16 4.5
v -1 9 0.5
v -1 13 0.5
v 1 9 0.5
v 1 13 0.5
v -1 8 -0.5
v -1 9 -0.5
v 1 8 -0.5
v 1 9 -0.5
v -1 7 -1.5
v -1 8 -1.5
v 1 7 -1.5
v 1 8 -1.5
v -2 11 -2.5
v -2 13 -2.5
v 2 11 -2.5
v 2 13 -2.5
v -3 11 -3.5
v -3 14 -3.5
v -2 9 -3.5
v -2 11 -3.5
v -2 14 -3.5
v 2 9 -3.5
v 2 11 -3.5
v 2 14 -3.5
v 3 11 -3.5
v 3 14 -3.5
v -3 9 -4.5
v -3 11 -4.5
v -2 7 -4.5
v -2 9 -4.5
v -2 11 -4.5
v -1 7 -4.5
v -1 8 -4.5
v 1 7 -4.5
v 1 8 -4.5
v 2 7 -4.5
v 2 9 -4.5
v 2 11 -4.5
v 3 9 -4.5
v 3 11 -4.5
v -3 7 -5.5
v -3 9 -5.5
v -2 0 -5.5
v -2 7 -5.5
v -2 9 -5.5
v 2 0 -5.5
v 2 7 -5.5
v 2 9 -5.5
v 3 7 -5.5
v 3 9 -5.5
v -3 0 -6.5
v -3 7 -6.5
v -2 0 -6.5
v -2 7 -6.5
v 2 0 -6.5
v 2 7 -6.5
v 3 0 -6.5
v 3 7 -6.5
v -1 10 -0.5
v -1 13 -0.5
v 1 10 -0.5
v 1 13 -0.5
v -1 9 -1.5
v -1 10 -1.5
v 1 9 -1.5
v 1 10 -1.5
v -1 8 -2.5
v -1 9 -2.5
v 1 8 -2.5
v 1 9 -2.5
v -3 15 -4.5
v -3 17 -4.5
v -2 15 -4.5
v -2 17 -4.5
v 2 15 -4.5
v 2 17 -4.5
v 3 15 -4.5
v 3 17 -4.5
v -3 13 -5.5
v -3 15 -5.5
v -2 13 -5.5
v -2 15 -5.5
v -2 18 -5.5
v 2 13 -5.5
v 2 15 -5.5
v 2 18 -5.5
v 3 13 -5.5
v 3 15 -5.5
v -3 11 -6.5
v -3 13 -6.5
v -2 11 -6.5
v -2 13 -6.5
v -2 15 -6.5
v 2 11 -6.5
v 2 13 -6.5
v 2 15 -6.5
v 3 11 -6.5
v 3 13 -6.5
v -3 9 -7.5
v -3 11 -7.5
v -2 9 -7.5
v -2 11 -7.5
v -2 13 -7.5
v 2 9 -7.5
v 2 11 -7.5
v 2 13 -7.5
v 3 9 -7.5
v 3 11 -7.5
v -3 7 -8.5
v -3 9 -8.5
v -2 7 -8.5
v -2 9 -8.5
v -2 11 -8.5
v 2 7 -8.5
v 2 9 -8.5
v 2 11 -8.5
v 3 7 -8.5
v 3 9 -8.5
v -3 0 -9.5
v -3 7 -9.5
v -2 0 -9.5
v -2 7 -9.5
v -2 9 -9.5
v 2 0 -9.5
v 2 7 -9.5
v 2 9 -9.5
v 3 0 -9.5
v 3 7 -9.5
v -2 0 -10.5
v -2 7 -10.5
v 2 0 -10.5
v 2 7 -10.5
v -2 0 -5.5
v 2 0 -5.5
v -3 0 -6.5
v -2 0 -6.5
v 2 0 -6.5
v 3 0 -6.5
v -3 0 -9.5
v -2 0 -9.5
v 2 0 -9.5
v 3 0 -9.5
v -2 0 -10.5
v 2 0 -10.5
v -1 7 -1.5
v 1 7 -1.5
v -2 7 -4.5
v -1 7 -4.5
v 1 7 -4.5
v 2 7 -4.5
v -3 7 -5.5
v -2 7 -5.5
v 2 7 -5.5
v 3 7 -5.5
v -3 7 -6.5
v -2 7 -6.5
v 2 7 -6.5
v 3 7 -6.5
v -1 8 -0.5
v 1 8 -0.5
v -1 8 -1.5
v 1 8 -1.5
v -1 9 0.5
v 1 9 0.5
v -1 9 -0.5
v 1 9 -0.5
v -2 9 -3.5
v 2 9 -3.5
v -3 9 -4.5
v -2 9 -4.5
v 2 9 -4.5
v 3 9 -4.5
v -3 9 -5.5
v -2 9 -5.5
v 2 9 -5.5
v 3 9 -5.5
v -2 11 -2.5
v 2 11 -2.5
v -3 11 -3.5
v -2 11 -3.5
v 2 11 -3.5
v 3 11 -3.5
v -3 11 -4.5
v -2 11 -4.5
v 2 11 -4.5
v 3 11 -4.5
v -2 13 11.5
v 2 13 11.5
v -1 13 0.5
v 1 13 0.5
v -1 13 -0.5
v 1 13 -0.5
v -2 13 -2.5
v 2 13 -2.5
v -2 14 12.5
v 2 14 12.5
v -3 14 11.5
v -2 14 11.5
v 2 14 11.5
v 3 14 11.5
v -3 14 -3.5
v -2 14 -3.5
v 2 14 -3.5
v 3 14 -3.5
v -1 16 12.5
v 1 16 12.5
v -1 16 11.5
v 1 16 11.5
v -1 16 4.5
v 1 16 4.5
v -3 7 -8.5
v -2 7 -8.5
v 2 7 -8.5
v 3 7 -8.5
v -3 7 -9.5
v -2 7 -9.5
v 2 7 -9.5
v 3 7 -9.5
v -2 7 -10.5
v 2 7 -10.5
v -1 8 -2.5
v 1 8 -2.5
v -1 8 -4.5
v 1 8 -4.5
v -1 9 -1.5
v 1 9 -1.5
v -1 9 -2.5
v 1 9 -2.5
v -3 9 -7.5
v -2 9 -7.5
v 2 9 -7.5
v 3 9 -7.5
v -3 9 -8.5
v -2 9 -8.5
v 2 9 -8.5
v 3 9 -8.5
v -2 9 -9.5
v 2 9 -9.5
v -1 10 -0.5
v 1 10 -0.5
v -1 10 -1.5
v 1 10 -1.5
v -3 11 -6.5
v -2 11 -6.5
v 2 11 -6.5
v 3 11 -6.5
v -3 11 -7.5
v -2 11 -7.5
v 2 11 -7.5
v 3 11 -7.5
v -2 11 -8.5
v 2 11 -8.5
v -3 13 -5.5
v -2 13 -5.5
v 2 13 -5.5
v 3 13 -5.5
v -3 13 -6.5
v -2 13 -6.5
v 2 13 -6.5
v 3 13 -6.5
v -2 13 -7.5
v 2 13 -7.5
v -1 15 12.5
v 1 15 12.5
v -1 15 11.5
v 1 15 11.5
v -1 15 4.5
v 1 15 4.5
v -3 15 -4.5
v -2 15 -4.5
v 2 15 -4.5
v 3 15 -4.5
v -3 15 -5.5
v -2 15 -5.5
v 2 15 -5.5
v 3 15 -5.5
v -2 15 -6.5
v 2 15 -6.5
v -2 17 12.5
v 2 17 12.5
v -3 17 11.5
v -2 17 11.5
v 2 17 11.5
v 3 17 11.5
v -3 17 -4.5
v -2 17 -4.5
v 2 17 -4.5
v 3 17 -4.5
v -2 18 11.5
v 2 18 11.5
v -2 18 -5.5
v 2 18 -5.5

# faces
f 4/2/1 2/2/1 1/2/1
f 5/2/1 2/2/1 4/2/1
f 6/2/1 2/2/1 5/2/1
f 8/2/1 4/2/1 3/2/1
f 8/2/1 5/2/1 4/2/1
f 9/2/1 5/2/1 8/2/1
f 10/2/1 5/2/1 9/2/1
f 12/2/1 8/2/1 7/2/1
f 12/2/1 9/2/1 8/2/1
f 13/2/1 9/2/1 12/2/1
f 14/2/1 9/2/1 13/2/1
f 15/2/1 12/2/1 11/2/1
f 15/2/1 13/2/1 12/2/1
f 16/2/1 13/2/1 15/2/1
f 18/2/1 15/2/1 11/2/1
f 19/2/1 15/2/1 18/2/1
f 19/2/1 18/2/1 17/2/1
f 20/2/1 15/2/1 19/2/1
f 21/2/1 19/2/1 17/2/1
f 22/2/1 19/2/1 21/2/1
f 28/2/1 24/2/1 23/2/1
f 29/2/1 24/2/1 28/2/1
f 31/2/1 26/2/1 25/2/1
f 32/2/1 26/2/1 31/2/1
f 34/2/1 28/2/1 27/2/1
f 35/2/1 28/2/1 34/2/1
f 37/2/1 31/2/1 30/2/1
f 38/2/1 31/2/1 37/2/1
f 40/2/1 34/2/1 33/2/1
f 41/2/1 34/2/1 40/2/1
f 43/2/1 37/2/1 36/2/1
f 44/2/1 37/2/1 43/2/1
f 46/2/1 40/2/1 39/2/1
f 48/2/1 43/2/1 42/2/1
f 49/2/1 43/2/1 48/2/1
f 51/2/1 46/2/1 45/2/1
f 52/2/1 40/2/1 46/2/1
f 52/2/1 46/2/1 51/2/1
f 54/2/1 48/2/1 47/2/1
f 55/2/1 48/2/1 54/2/1
f 56/1/1 51/1/1 50/1/1
f 57/1/1 51/1/1 56/1/1
f 58/2/1 54/2/1 53/2/1
f 59/2/1 58/2/1 57/2/1
f 60/2/1 54/2/1 58/2/1
f 60/2/1 58/2/1 59/2/1
f 64/1/1 62/1/1 61/1/1
f 65/1/1 62/1/1 64/1/1
f 66/1/1 62/1/1 65/1/1
f 68/1/1 64/1/1 63/1/1
f 68/1/1 65/1/1 64/1/1
f 69/1/1 65/1/1 68/1/1
f 70/1/1 65/1/1 69/1/1
f 71/1/1 68/1/1 67/1/1
f 71/1/1 69/1/1 68/1/1
f 72/1/1 69/1/1 71/1/1
f 73/1/1 71/1/1 67/1/1
f 74/1/1 71/1/1 73/1/1
f 78/1/1 76/1/1 75/1/1
f 79/2/1 77/2/1 76/2/1
f 79/1/1 76/1/1 78/1/1
f 80/2/1 77/2/1 79/2/1
f 81/1/2 82/1/2 84/1/2
f 82/2/2 83/2/2 85/2/2
f 84/1/2 82/1/2 85/1/2
f 85/2/2 83/2/2 86/2/2
f 87/1/2 88/1/2 90/1/2
f 90/1/2 88/1/2 91/1/2
f 91/1/2 88/1/2 92/1/2
f 89/1/2 90/1/2 94/1/2
f 90/1/2 91/1/2 94/1/2
f 94/1/2 91/1/2 95/1/2
f 95/1/2 91/1/2 96/1/2
f 93/1/2 94/1/2 97/1/2
f 94/1/2 95/1/2 97/1/2
f 97/1/2 95/1/2 98/1/2
f 93/1/2 97/1/2 99/1/2
f 99/1/2 97/1/2 100/1/2
f 101/2/2 102/2/2 106/2/2
f 106/2/2 102/2/2 107/2/2
f 103/2/2 104/2/2 109/2/2
f 109/2/2 104/2/2 110/2/2
f 105/2/2 106/2/2 112/2/2
f 112/2/2 106/2/2 113/2/2
f 108/2/2 109/2/2 115/2/2
f 115/2/2 109/2/2 116/2/2
f 111/2/2 112/2/2 118/2/2
f 118/2/2 112/2/2 119/2/2
f 114/2/2 115/2/2 121/2/2
f 121/2/2 115/2/2 122/2/2
f 117/2/2 118/2/2 124/2/2
f 120/2/2 121/2/2 126/2/2
f 126/2/2 121/2/2 127/2/2
f 123/2/2 124/2/2 129/2/2
f 124/2/2 118/2/2 130/2/2
f 129/2/2 124/2/2 130/2/2
f 125/2/2 126/2/2 132/2/2
f 132/2/2 126/2/2 133/2/2
f 128/1/2 129/1/2 134/1/2
f 134/1/2 129/1/2 135/1/2
f 131/2/2 132/2/2 136/2/2
f 135/2/2 136/2/2 137/2/2
f 136/2/2 132/2/2 138/2/2
f 137/2/2 136/2/2 138/2/2
f 139/2/2 140/2/2 142/2/2
f 142/2/2 140/2/2 143/2/2
f 143/2/2 140/2/2 144/2/2
f 141/2/2 142/2/2 146/2/2
f 142/2/2 143/2/2 146/2/2
f 146/2/2 143/2/2 147/2/2
f 147/2/2 143/2/2 148/2/2
f 145/2/2 146/2/2 150/2/2
f 146/2/2 147/2/2 150/2/2
f 150/2/2 147/2/2 151/2/2
f 151/2/2 147/2/2 152/2/2
f 149/2/2 150/2/2 153/2/2
f 150/2/2 151/2/2 153/2/2
f 153/2/2 151/2/2 154/2/2
f 149/2/2 153/2/2 156/2/2
f 156/2/2 153/2/2 157/2/2
f 155/2/2 156/2/2 157/2/2
f 157/2/2 153/2/2 158/2/2
f 155/2/2 157/2/2 159/2/2
f 159/2/2 157/2/2 160/2/2
f 163/1/3 162/1/3 161/1/3
f 164/1/3 162/1/3 163/1/3
f 165/1/3 163/1/3 161/1/3
f 166/1/3 162/1/3 164/1/3
f 167/1/3 165/1/3 161/1/3
f 167/1/3 166/1/3 165/1/3
f 168/1/3 162/1/3 166/1/3
f 168/1/3 166/1/3 167/1/3
f 172/2/3 170/2/3 169/2/3
f 173/2/3 170/2/3 172/2/3
f 175/2/3 172/2/3 171/2/3
f 176/2/3 172/2/3 175/2/3
f 177/2/3 174/2/3 173/2/3
f 178/2/3 174/2/3 177/2/3
f 179/2/3 177/2/3 176/2/3
f 180/2/3 177/2/3 179/2/3
f 183/2/3 182/2/3 181/2/3
f 184/2/3 182/2/3 183/2/3
f 187/1/3 186/1/3 185/1/3
f 188/1/3 186/1/3 187/1/3
f 191/1/3 190/1/3 189/1/3
f 192/1/3 190/1/3 191/1/3
f 195/1/3 194/1/3 193/1/3
f 196/1/3 194/1/3 195/1/3
f 199/2/3 198/2/3 197/2/3
f 200/2/3 198/2/3 199/2/3
f 204/2/3 202/2/3 201/2/3
f 205/2/3 202/2/3 204/2/3
f 206/2/3 204/2/3 203/2/3
f 207/2/3 204/2/3 206/2/3
f 209/2/3 208/2/3 207/2/3
f 210/2/3 208/2/3 209/2/3
f 214/2/3 212/2/3 211/2/3
f 215/2/3 212/2/3 214/2/3
f 216/2/3 214/2/3 213/2/3
f 217/2/3 214/2/3 216/2/3
f 219/2/3 214/2/3 217/2/3
f 220/2/3 219/2/3 218/2/3
f 221/2/3 214/2/3 219/2/3
f 221/2/3 219/2/3 220/2/3
f 223/2/3 222/2/3 221/2/3
f 224/2/3 222/2/3 223/2/3
f 228/2/3 226/2/3 225/2/3
f 229/2/3 226/2/3 228/2/3
f 230/2/3 228/2/3 227/2/3
f 231/2/3 228/2/3 230/2/3
f 233/2/3 232/2/3 231/2/3
f 234/2/3 232/2/3 233/2/3
f 237/2/3 236/2/3 235/2/3
f 238/2/3 236/2/3 237/2/3
f 241/2/3 240/2/3 239/2/3
f 242/2/3 240/2/3 241/2/3
f 243/1/4 244/1/4 245/1/4
f 245/1/4 244/1/4 246/1/4
f 247/1/4 248/1/4 249/1/4
f 249/1/4 248/1/4 250/1/4
f 251/1/4 252/1/4 253/1/4
f 253/1/4 252/1/4 254/1/4
f 255/2/4 256/2/4 257/2/4
f 257/2/4 256/2/4 258/2/4
f 259/2/4 260/2/4 261/2/4
f 261/2/4 260/2/4 262/2/4
f 263/2/4 264/2/4 265/2/4
f 265/2/4 264/2/4 266/2/4
f 266/2/4 267/2/4 269/2/4
f 269/2/4 267/2/4 270/2/4
f 268/2/4 269/2/4 271/2/4
f 271/2/4 269/2/4 272/2/4
f 273/2/4 274/2/4 275/2/4
f 275/2/4 274/2/4 276/2/4
f 276/2/4 277/2/4 279/2/4
f 279/2/4 277/2/4 280/2/4
f 278/2/4 279/2/4 281/2/4
f 281/2/4 279/2/4 282/2/4
f 283/2/4 284/2/4 285/2/4
f 285/2/4 284/2/4 286/2/4
f 286/2/4 287/2/4 289/2/4
f 289/2/4 287/2/4 290/2/4
f 288/2/4 289/2/4 291/2/4
f 291/2/4 289/2/4 292/2/4
f 293/2/4 294/2/4 295/2/4
f 295/2/4 294/2/4 296/2/4
f 296/2/4 297/2/4 299/2/4
f 299/2/4 297/2/4 300/2/4
f 298/2/4 299/2/4 301/2/4
f 301/2/4 299/2/4 302/2/4
f 303/2/4 304/2/4 305/2/4
f 305/2/4 304/2/4 306/2/4
f 306/2/4 307/2/4 309/2/4
f 309/2/4 307/2/4 310/2/4
f 308/2/4 309/2/4 311/2/4
f 311/2/4 309/2/4 312/2/4
f 313/2/4 314/2/4 315/2/4
f 315/2/4 314/2/4 316/2/4
f 320/2/5 318/2/5 317/2/5
f 321/2/5 318/2/5 320/2/5
f 323/2/5 320/2/5 319/2/5
f 323/2/5 322/2/5 321/2/5
f 323/2/5 321/2/5 320/2/5
f 324/2/5 322/2/5 323/2/5
f 325/2/5 322/2/5 324/2/5
f 326/2/5 322/2/5 325/2/5
f 327/2/5 325/2/5 324/2/5
f 328/2/5 325/2/5 327/2/5
f 332/1/5 330/1/5 329/1/5
f 333/1/5 330/1/5 332/1/5
f 336/2/5 332/2/5 331/2/5
f 336/2/5 334/2/5 333/2/5
f 336/2/5 333/2/5 332/2/5
f 337/2/5 334/2/5 336/2/5
f 339/2/5 336/2/5 335/2/5
f 340/2/5 336/2/5 339/2/5
f 341/2/5 338/2/5 337/2/5
f 342/2/5 338/2/5 341/2/5
f 345/1/5 344/1/5 343/1/5
f 346/1/5 344/1/5 345/1/5
f 349/1/5 348/1/5 347/1/5
f 350/1/5 348/1/5 349/1/5
f 354/2/5 352/2/5 351/2/5
f 355/2/5 352/2/5 354/2/5
f 357/2/5 354/2/5 353/2/5
f 358/2/5 354/2/5 357/2/5
f 359/2/5 356/2/5 355/2/5
f 360/2/5 356/2/5 359/2/5
f 364/2/5 362/2/5 361/2/5
f 365/2/5 362/2/5 364/2/5
f 367/2/5 364/2/5 363/2/5
f 368/2/5 364/2/5 367/2/5
f 369/2/5 366/2/5 365/2/5
f 370/2/5 366/2/5 369/2/5
f 373/2/5 372/2/5 371/2/5
f 374/2/5 372/2/5 373/2/5
f 375/2/5 373/2/5 371/2/5
f 376/2/5 372/2/5 374/2/5
f 377/2/5 375/2/5 371/2/5
f 377/2/5 376/2/5 375/2/5
f 378/2/5 372/2/5 376/2/5
f 378/2/5 376/2/5 377/2/5
f 382/1/5 380/1/5 379/1/5
f 383/1/5 380/1/5 382/1/5
f 385/2/5 382/2/5 381/2/5
f 386/2/5 382/2/5 385/2/5
f 387/2/5 384/2/5 383/2/5
f 388/2/5 384/2/5 387/2/5
f 391/1/5 390/1/5 389/1/5
f 392/1/5 390/1/5 391/1/5
f 393/2/5 392/2/5 391/2/5
f 394/2/5 392/2/5 393/2/5
f 395/2/6 396/2/6 399/2/6
f 399/2/6 396/2/6 400/2/6
f 397/2/6 398/2/6 401/2/6
f 401/2/6 398/2/6 402/2/6
f 400/2/6 401/2/6 403/2/6
f 403/2/6 401/2/6 404/2/6
f 405/1/6 406/1/6 407/1/6
f 407/1/6 406/1/6 408/1/6
f 409/1/6 410/1/6 411/1/6
f 411/1/6 410/1/6 412/1/6
f 413/2/6 414/2/6 417/2/6
f 417/2/6 414/2/6 418/2/6
f 415/2/6 416/2/6 419/2/6
f 419/2/6 416/2/6 420/2/6
f 418/2/6 419/2/6 421/2/6
f 421/2/6 419/2/6 422/2/6
f 423/1/6 424/1/6 425/1/6
f 425/1/6 424/1/6 426/1/6
f 427/2/6 428/2/6 431/2/6
f 431/2/6 428/2/6 432/2/6
f 429/2/6 430/2/6 433/2/6
f 433/2/6 430/2/6 434/2/6
f 432/2/6 433/2/6 435/2/6
f 435/2/6 433/2/6 436/2/6
f 437/2/6 438/2/6 441/2/6
f 441/2/6 438/2/6 442/2/6
f 439/2/6 440/2/6 443/2/6
f 443/2/6 440/2/6 444/2/6
f 442/2/6 443/2/6 445/2/6
f 445/2/6 443/2/6 446/2/6
f 447/1/6 448/1/6 449/1/6
f 449/1/6 448/1/6 450/1/6
f 449/2/6 450/2/6 451/2/6
f 451/2/6 450/2/6 452/2/6
f 453/2/6 454/2/6 457/2/6
f 457/2/6 454/2/6 458/2/6
f 455/2/6 456/2/6 459/2/6
f 459/2/6 456/2/6 460/2/6
f 458/2/6 459/2/6 461/2/6
f 461/2/6 459/2/6 462/2/6
f 463/1/6 464/1/6 466/1/6
f 466/1/6 464/1/6 467/1/6
f 465/2/6 466/2/6 469/2/6
f 469/2/6 466/2/6 470/2/6
f 467/2/6 468/2/6 471/2/6
f 471/2/6 468/2/6 472/2/6
f 473/2/6 474/2/6 475/2/6
f 475/2/6 474/2/6 476/2/6
