# MagicaVoxel @ Ephtracy

# material
mtllib Rat.mtl
usemtl palette

# normals
vn -1 0 0
vn 1 0 0
vn 0 0 1
vn 0 0 -1
vn 0 -1 0
vn 0 1 0

# texcoords
vt 0.841797 0.5
vt 0.845703 0.5
vt 0.857422 0.5
vt 0.869141 0.5
vt 0.873047 0.5
vt 0.876953 0.5
vt 0.880859 0.5
vt 0.958984 0.5
vt 0.966797 0.5
vt 0.978516 0.5
vt 0.982422 0.5
vt 0.990234 0.5

# verts
v -6 0 11
v -6 0 1
v -6 0 -2
v -6 0 -12
v -6 5 11
v -6 5 9
v -6 5 3
v -6 5 1
v -6 5 -2
v -6 5 -4
v -6 5 -10
v -6 5 -12
v -6 7 9
v -6 7 3
v -6 7 -4
v -6 7 -10
v -4 0 15
v -4 0 11
v -4 0 1
v -4 0 -2
v -4 0 -12
v -4 0 -14
v -4 0 -17
v -4 0 -20
v -4 3 15
v -4 3 13
v -4 3 -17
v -4 3 -20
v -4 5 15
v -4 5 13
v -4 5 11
v -4 5 1
v -4 5 -2
v -4 5 -12
v -4 5 -14
v -2 0 20
v -2 0 15
v -2 0 -14
v -2 0 -17
v -2 1 -18
v -2 1 -19
v -2 2 -18
v -2 2 -19
v -2 3 20
v -2 3 15
v -2 3 -14
v -2 3 -17
v 0 1 19
v 0 1 14
v 0 1 -13
v 0 1 -17
v 0 2 19
v 0 2 14
v 0 2 -13
v 0 2 -17
v 2 1 14
v 2 1 10
v 2 1 2
v 2 1 -3
v 2 1 -11
v 2 1 -13
v 2 3 14
v 2 3 13
v 2 4 14
v 2 4 13
v 2 4 10
v 2 4 2
v 2 4 1
v 2 4 -3
v 2 4 -11
v 2 4 -13
v 4 1 10
v 4 1 2
v 4 1 -3
v 4 1 -11
v 4 4 10
v 4 4 8
v 4 4 4
v 4 4 2
v 4 4 -3
v 4 4 -5
v 4 4 -9
v 4 4 -11
v 4 6 8
v 4 6 4
v 4 6 -5
v 4 6 -9
v -5 1 10
v -5 1 2
v -5 1 -3
v -5 1 -11
v -5 4 10
v -5 4 8
v -5 4 4
v -5 4 2
v -5 4 -3
v -5 4 -5
v -5 4 -9
v -5 4 -11
v -5 6 8
v -5 6 4
v -5 6 -5
v -5 6 -9
v -3 1 14
v -3 1 10
v -3 1 2
v -3 1 -3
v -3 1 -11
v -3 1 -13
v -3 1 -18
v -3 1 -19
v -3 2 -18
v -3 2 -19
v -3 3 14
v -3 3 13
v -3 4 14
v -3 4 13
v -3 4 10
v -3 4 2
v -3 4 1
v -3 4 -3
v -3 4 -11
v -3 4 -13
v -1 0 -18
v -1 0 -20
v -1 1 19
v -1 1 14
v -1 1 -13
v -1 1 -17
v -1 2 19
v -1 2 14
v -1 2 -13
v -1 2 -17
v -1 3 -18
v -1 3 -20
v 1 0 20
v 1 0 15
v 1 0 -14
v 1 0 -18
v 1 3 20
v 1 3 15
v 1 3 -14
v 1 3 -18
v 3 0 15
v 3 0 11
v 3 0 1
v 3 0 -2
v 3 0 -12
v 3 0 -14
v 3 3 15
v 3 3 13
v 3 5 15
v 3 5 13
v 3 5 11
v 3 5 1
v 3 5 -2
v 3 5 -12
v 3 5 -14
v 5 0 11
v 5 0 1
v 5 0 -2
v 5 0 -12
v 5 5 11
v 5 5 9
v 5 5 3
v 5 5 1
v 5 5 -2
v 5 5 -4
v 5 5 -10
v 5 5 -12
v 5 7 9
v 5 7 3
v 5 7 -4
v 5 7 -10
v -2 0 20
v -2 3 20
v 1 0 20
v 1 3 20
v -4 0 15
v -4 3 15
v -4 5 15
v -2 0 15
v -2 3 15
v -2 5 15
v 1 0 15
v 1 3 15
v 1 5 15
v 3 0 15
v 3 3 15
v 3 5 15
v -6 0 11
v -6 5 11
v -4 0 11
v -4 5 11
v 3 0 11
v 3 5 11
v 5 0 11
v 5 5 11
v -6 5 9
v -6 7 9
v 5 5 9
v 5 7 9
v -5 4 4
v -5 6 4
v 4 4 4
v 4 6 4
v -5 1 2
v -5 4 2
v -3 1 2
v -3 4 2
v 2 1 2
v 2 4 2
v 4 1 2
v 4 4 2
v -6 0 -2
v -6 5 -2
v -4 0 -2
v -4 5 -2
v 3 0 -2
v 3 5 -2
v 5 0 -2
v 5 5 -2
v -6 5 -4
v -6 7 -4
v -2 5 -4
v -1 5 -4
v 0 5 -4
v 5 5 -4
v 5 7 -4
v -5 4 -9
v -5 6 -9
v 4 4 -9
v 4 6 -9
v -5 1 -11
v -5 4 -11
v -3 1 -11
v -3 4 -11
v 2 1 -11
v 2 4 -11
v 4 1 -11
v 4 4 -11
v -3 1 -13
v -3 4 -13
v -1 1 -13
v -1 2 -13
v 0 1 -13
v 0 2 -13
v 2 1 -13
v 2 4 -13
v -4 0 -17
v -4 3 -17
v -2 0 -17
v -2 3 -17
v -1 1 -17
v -1 2 -17
v 0 1 -17
v 0 2 -17
v -3 1 -19
v -3 2 -19
v -2 1 -19
v -2 2 -19
v -1 1 19
v -1 2 19
v 0 1 19
v 0 2 19
v -3 1 14
v -3 3 14
v -3 4 14
v -2 3 14
v -2 4 14
v -1 1 14
v -1 2 14
v 0 1 14
v 0 2 14
v 1 3 14
v 1 4 14
v 2 1 14
v 2 3 14
v 2 4 14
v -5 1 10
v -5 4 10
v -3 1 10
v -3 4 10
v 2 1 10
v 2 4 10
v 4 1 10
v 4 4 10
v -5 4 8
v -5 6 8
v 4 4 8
v 4 6 8
v -6 5 3
v -6 7 3
v -2 5 3
v -1 5 3
v 0 5 3
v 2 5 3
v 5 5 3
v 5 7 3
v -6 0 1
v -6 5 1
v -4 0 1
v -4 5 1
v 3 0 1
v 3 5 1
v 5 0 1
v 5 5 1
v -5 1 -3
v -5 4 -3
v -3 1 -3
v -3 4 -3
v 2 1 -3
v 2 4 -3
v 4 1 -3
v 4 4 -3
v -5 4 -5
v -5 6 -5
v 4 4 -5
v 4 6 -5
v -6 5 -10
v -6 7 -10
v 5 5 -10
v 5 7 -10
v -6 0 -12
v -6 5 -12
v -4 0 -12
v -4 5 -12
v 3 0 -12
v 3 5 -12
v 5 0 -12
v 5 5 -12
v -4 0 -14
v -4 5 -14
v -2 0 -14
v -2 3 -14
v 1 0 -14
v 1 3 -14
v 3 0 -14
v 3 5 -14
v -3 1 -18
v -3 2 -18
v -2 1 -18
v -2 2 -18
v -1 0 -18
v -1 3 -18
v 1 0 -18
v 1 3 -18
v -4 0 -20
v -4 3 -20
v -1 0 -20
v -1 3 -20
v -2 0 20
v 1 0 20
v -4 0 15
v -2 0 15
v 1 0 15
v 3 0 15
v -6 0 11
v -4 0 11
v 3 0 11
v 5 0 11
v -6 0 1
v -4 0 1
v 3 0 1
v 5 0 1
v -6 0 -2
v -4 0 -2
v 3 0 -2
v 5 0 -2
v -6 0 -12
v -4 0 -12
v 3 0 -12
v 5 0 -12
v -4 0 -14
v -2 0 -14
v 1 0 -14
v 3 0 -14
v -4 0 -17
v -2 0 -17
v -1 0 -18
v 1 0 -18
v -4 0 -20
v -1 0 -20
v -1 2 19
v 0 2 19
v -1 2 14
v 0 2 14
v -1 2 -13
v 0 2 -13
v -1 2 -17
v 0 2 -17
v -3 2 -18
v -2 2 -18
v -3 2 -19
v -2 2 -19
v -3 4 14
v -2 4 14
v 1 4 14
v 2 4 14
v -3 4 13
v -2 4 13
v 1 4 13
v 2 4 13
v -5 4 10
v -3 4 10
v 2 4 10
v 4 4 10
v -5 4 8
v 4 4 8
v -5 4 4
v 4 4 4
v -2 4 3
v -1 4 3
v 0 4 3
v 2 4 3
v -5 4 2
v -3 4 2
v -2 4 2
v -1 4 2
v 0 4 2
v 1 4 2
v 2 4 2
v 4 4 2
v -3 4 1
v -2 4 1
v -1 4 1
v 0 4 1
v 1 4 1
v 2 4 1
v -2 4 -0
v -1 4 -0
v 0 4 -0
v 1 4 -0
v -2 4 -1
v -1 4 -1
v 0 4 -1
v 1 4 -1
v -2 4 -2
v -1 4 -2
v 0 4 -2
v 1 4 -2
v -5 4 -3
v -3 4 -3
v -2 4 -3
v -1 4 -3
v 0 4 -3
v 1 4 -3
v 2 4 -3
v 4 4 -3
v -2 4 -4
v -1 4 -4
v 0 4 -4
v -5 4 -5
v 4 4 -5
v -5 4 -9
v 4 4 -9
v -5 4 -11
v -3 4 -11
v 2 4 -11
v 4 4 -11
v -3 4 -13
v 2 4 -13
v -5 6 8
v 4 6 8
v -5 6 4
v 4 6 4
v -5 6 -5
v 4 6 -5
v -5 6 -9
v 4 6 -9
v -1 1 19
v 0 1 19
v -3 1 14
v -1 1 14
v 0 1 14
v 2 1 14
v -5 1 10
v -3 1 10
v 2 1 10
v 4 1 10
v -5 1 2
v -3 1 2
v 2 1 2
v 4 1 2
v -5 1 -3
v -3 1 -3
v 2 1 -3
v 4 1 -3
v -5 1 -11
v -3 1 -11
v 2 1 -11
v 4 1 -11
v -3 1 -13
v -1 1 -13
v 0 1 -13
v 2 1 -13
v -1 1 -17
v 0 1 -17
v -3 1 -18
v -2 1 -18
v -3 1 -19
v -2 1 -19
v -2 3 20
v 1 3 20
v -2 3 15
v 1 3 15
v -2 3 -14
v 1 3 -14
v -4 3 -17
v -2 3 -17
v -1 3 -18
v 1 3 -18
v -4 3 -20
v -1 3 -20
v -4 5 15
v -2 5 15
v 1 5 15
v 3 5 15
v -4 5 13
v -2 5 13
v 1 5 13
v 3 5 13
v -6 5 11
v -4 5 11
v 3 5 11
v 5 5 11
v -6 5 9
v 5 5 9
v -6 5 3
v -2 5 3
v -1 5 3
v 0 5 3
v 2 5 3
v 5 5 3
v -3 5 2
v -2 5 2
v -1 5 2
v 0 5 2
v 1 5 2
v 2 5 2
v -6 5 1
v -4 5 1
v -3 5 1
v -2 5 1
v -1 5 1
v 0 5 1
v 1 5 1
v 2 5 1
v 3 5 1
v 5 5 1
v -2 5 -0
v -1 5 -0
v 0 5 -0
v 1 5 -0
v -2 5 -1
v -1 5 -1
v 0 5 -1
v 1 5 -1
v -6 5 -2
v -4 5 -2
v -2 5 -2
v -1 5 -2
v 0 5 -2
v 1 5 -2
v 3 5 -2
v 5 5 -2
v -2 5 -3
v -1 5 -3
v 0 5 -3
v 1 5 -3
v -6 5 -4
v -2 5 -4
v -1 5 -4
v 0 5 -4
v 5 5 -4
v -6 5 -10
v 5 5 -10
v -6 5 -12
v -4 5 -12
v 3 5 -12
v 5 5 -12
v -4 5 -14
v 3 5 -14
v -6 7 9
v 5 7 9
v -6 7 3
v 5 7 3
v -6 7 -4
v 5 7 -4
v -6 7 -10
v 5 7 -10

# faces
f 5/12/1 2/12/1 1/12/1
f 6/12/1 2/12/1 5/12/1
f 7/12/1 2/12/1 6/12/1
f 8/12/1 2/12/1 7/12/1
f 9/12/1 4/12/1 3/12/1
f 10/12/1 4/12/1 9/12/1
f 11/12/1 4/12/1 10/12/1
f 12/12/1 4/12/1 11/12/1
f 13/12/1 7/12/1 6/12/1
f 14/12/1 7/12/1 13/12/1
f 15/12/1 11/12/1 10/12/1
f 16/12/1 11/12/1 15/12/1
f 25/12/1 18/12/1 17/12/1
f 26/12/1 18/12/1 25/12/1
f 27/12/1 24/12/1 23/12/1
f 28/12/1 24/12/1 27/12/1
f 29/7/1 26/7/1 25/7/1
f 30/12/1 18/12/1 26/12/1
f 30/7/1 26/7/1 29/7/1
f 31/12/1 18/12/1 30/12/1
f 32/12/1 20/12/1 19/12/1
f 33/12/1 20/12/1 32/12/1
f 34/12/1 22/12/1 21/12/1
f 35/12/1 22/12/1 34/12/1
f 42/12/1 41/12/1 40/12/1
f 43/12/1 41/12/1 42/12/1
f 44/12/1 37/12/1 36/12/1
f 45/12/1 37/12/1 44/12/1
f 46/12/1 39/12/1 38/12/1
f 47/12/1 39/12/1 46/12/1
f 52/12/1 49/12/1 48/12/1
f 53/12/1 49/12/1 52/12/1
f 54/12/1 51/12/1 50/12/1
f 55/12/1 51/12/1 54/12/1
f 62/12/1 57/12/1 56/12/1
f 63/12/1 57/12/1 62/12/1
f 64/7/1 63/7/1 62/7/1
f 65/12/1 57/12/1 63/12/1
f 65/7/1 63/7/1 64/7/1
f 66/12/1 57/12/1 65/12/1
f 67/12/1 59/12/1 58/12/1
f 68/12/1 59/12/1 67/12/1
f 69/12/1 59/12/1 68/12/1
f 70/12/1 61/12/1 60/12/1
f 71/12/1 61/12/1 70/12/1
f 76/12/1 73/12/1 72/12/1
f 77/12/1 73/12/1 76/12/1
f 78/12/1 73/12/1 77/12/1
f 79/12/1 73/12/1 78/12/1
f 80/12/1 75/12/1 74/12/1
f 81/12/1 75/12/1 80/12/1
f 82/12/1 75/12/1 81/12/1
f 83/12/1 75/12/1 82/12/1
f 84/12/1 78/12/1 77/12/1
f 85/12/1 78/12/1 84/12/1
f 86/12/1 82/12/1 81/12/1
f 87/12/1 82/12/1 86/12/1
f 88/12/2 89/12/2 92/12/2
f 92/12/2 89/12/2 93/12/2
f 93/12/2 89/12/2 94/12/2
f 94/12/2 89/12/2 95/12/2
f 90/12/2 91/12/2 96/12/2
f 96/12/2 91/12/2 97/12/2
f 97/12/2 91/12/2 98/12/2
f 98/12/2 91/12/2 99/12/2
f 93/12/2 94/12/2 100/12/2
f 100/12/2 94/12/2 101/12/2
f 97/12/2 98/12/2 102/12/2
f 102/12/2 98/12/2 103/12/2
f 110/12/2 111/12/2 112/12/2
f 112/12/2 111/12/2 113/12/2
f 104/12/2 105/12/2 114/12/2
f 114/12/2 105/12/2 115/12/2
f 114/7/2 115/7/2 116/7/2
f 115/12/2 105/12/2 117/12/2
f 116/7/2 115/7/2 117/7/2
f 117/12/2 105/12/2 118/12/2
f 106/12/2 107/12/2 119/12/2
f 119/12/2 107/12/2 120/12/2
f 120/12/2 107/12/2 121/12/2
f 108/12/2 109/12/2 122/12/2
f 122/12/2 109/12/2 123/12/2
f 126/12/2 127/12/2 130/12/2
f 130/12/2 127/12/2 131/12/2
f 128/12/2 129/12/2 132/12/2
f 132/12/2 129/12/2 133/12/2
f 124/12/2 125/12/2 134/12/2
f 134/12/2 125/12/2 135/12/2
f 136/12/2 137/12/2 140/12/2
f 140/12/2 137/12/2 141/12/2
f 138/12/2 139/12/2 142/12/2
f 142/12/2 139/12/2 143/12/2
f 144/12/2 145/12/2 150/12/2
f 150/12/2 145/12/2 151/12/2
f 150/7/2 151/7/2 152/7/2
f 151/12/2 145/12/2 153/12/2
f 152/7/2 151/7/2 153/7/2
f 153/12/2 145/12/2 154/12/2
f 146/12/2 147/12/2 155/12/2
f 155/12/2 147/12/2 156/12/2
f 148/12/2 149/12/2 157/12/2
f 157/12/2 149/12/2 158/12/2
f 159/12/2 160/12/2 163/12/2
f 163/12/2 160/12/2 164/12/2
f 164/12/2 160/12/2 165/12/2
f 165/12/2 160/12/2 166/12/2
f 161/12/2 162/12/2 167/12/2
f 167/12/2 162/12/2 168/12/2
f 168/12/2 162/12/2 169/12/2
f 169/12/2 162/12/2 170/12/2
f 164/12/2 165/12/2 171/12/2
f 171/12/2 165/12/2 172/12/2
f 168/12/2 169/12/2 173/12/2
f 173/12/2 169/12/2 174/12/2
f 177/12/3 176/12/3 175/12/3
f 178/12/3 176/12/3 177/12/3
f 182/12/3 180/12/3 179/12/3
f 183/7/3 181/7/3 180/7/3
f 183/12/3 180/12/3 182/12/3
f 184/7/3 181/7/3 183/7/3
f 186/12/3 184/12/3 183/12/3
f 187/12/3 184/12/3 186/12/3
f 188/12/3 186/12/3 185/12/3
f 189/7/3 187/7/3 186/7/3
f 189/12/3 186/12/3 188/12/3
f 190/7/3 187/7/3 189/7/3
f 193/12/3 192/12/3 191/12/3
f 194/12/3 192/12/3 193/12/3
f 197/12/3 196/12/3 195/12/3
f 198/12/3 196/12/3 197/12/3
f 201/12/3 200/12/3 199/12/3
f 202/12/3 200/12/3 201/12/3
f 205/12/3 204/12/3 203/12/3
f 206/12/3 204/12/3 205/12/3
f 209/12/3 208/12/3 207/12/3
f 210/12/3 208/12/3 209/12/3
f 213/12/3 212/12/3 211/12/3
f 214/12/3 212/12/3 213/12/3
f 217/12/3 216/12/3 215/12/3
f 218/12/3 216/12/3 217/12/3
f 221/12/3 220/12/3 219/12/3
f 222/12/3 220/12/3 221/12/3
f 225/12/3 224/12/3 223/12/3
f 226/12/3 224/12/3 225/12/3
f 227/12/3 224/12/3 226/12/3
f 228/12/3 224/12/3 227/12/3
f 229/12/3 224/12/3 228/12/3
f 232/12/3 231/12/3 230/12/3
f 233/12/3 231/12/3 232/12/3
f 236/12/3 235/12/3 234/12/3
f 237/12/3 235/12/3 236/12/3
f 240/12/3 239/12/3 238/12/3
f 241/12/3 239/12/3 240/12/3
f 244/12/3 243/12/3 242/12/3
f 245/12/3 243/12/3 244/12/3
f 247/12/3 243/12/3 245/12/3
f 248/12/3 247/12/3 246/12/3
f 249/12/3 243/12/3 247/12/3
f 249/12/3 247/12/3 248/12/3
f 252/12/3 251/12/3 250/12/3
f 253/12/3 251/12/3 252/12/3
f 256/12/3 255/12/3 254/12/3
f 257/12/3 255/12/3 256/12/3
f 260/12/3 259/12/3 258/12/3
f 261/12/3 259/12/3 260/12/3
f 262/12/4 263/12/4 264/12/4
f 264/12/4 263/12/4 265/12/4
f 266/12/4 267/12/4 269/12/4
f 267/7/4 268/7/4 269/7/4
f 269/7/4 268/7/4 270/7/4
f 266/12/4 269/12/4 271/12/4
f 269/12/4 270/12/4 271/12/4
f 271/12/4 270/12/4 272/12/4
f 272/12/4 270/12/4 274/12/4
f 274/12/4 270/12/4 275/12/4
f 273/12/4 274/12/4 275/12/4
f 275/12/4 270/12/4 276/12/4
f 273/12/4 275/12/4 277/12/4
f 275/7/4 276/7/4 278/7/4
f 277/12/4 275/12/4 278/12/4
f 278/7/4 276/7/4 279/7/4
f 280/12/4 281/12/4 282/12/4
f 282/12/4 281/12/4 283/12/4
f 284/12/4 285/12/4 286/12/4
f 286/12/4 285/12/4 287/12/4
f 288/12/4 289/12/4 290/12/4
f 290/12/4 289/12/4 291/12/4
f 292/12/4 293/12/4 294/12/4
f 294/12/4 293/12/4 295/12/4
f 295/12/4 293/12/4 296/12/4
f 296/12/4 293/12/4 297/12/4
f 297/12/4 293/12/4 298/12/4
f 298/12/4 293/12/4 299/12/4
f 300/12/4 301/12/4 302/12/4
f 302/12/4 301/12/4 303/12/4
f 304/12/4 305/12/4 306/12/4
f 306/12/4 305/12/4 307/12/4
f 308/12/4 309/12/4 310/12/4
f 310/12/4 309/12/4 311/12/4
f 312/12/4 313/12/4 314/12/4
f 314/12/4 313/12/4 315/12/4
f 316/12/4 317/12/4 318/12/4
f 318/12/4 317/12/4 319/12/4
f 320/12/4 321/12/4 322/12/4
f 322/12/4 321/12/4 323/12/4
f 324/12/4 325/12/4 326/12/4
f 326/12/4 325/12/4 327/12/4
f 328/12/4 329/12/4 330/12/4
f 330/12/4 329/12/4 331/12/4
f 332/12/4 333/12/4 334/12/4
f 334/12/4 333/12/4 335/12/4
f 335/12/4 333/12/4 337/12/4
f 336/12/4 337/12/4 338/12/4
f 337/12/4 333/12/4 339/12/4
f 338/12/4 337/12/4 339/12/4
f 340/12/4 341/12/4 342/12/4
f 342/12/4 341/12/4 343/12/4
f 344/12/4 345/12/4 346/12/4
f 346/12/4 345/12/4 347/12/4
f 348/12/4 349/12/4 350/12/4
f 350/12/4 349/12/4 351/12/4
f 355/12/5 353/12/5 352/12/5
f 356/12/5 353/12/5 355/12/5
f 359/12/5 355/12/5 354/12/5
f 359/12/5 357/12/5 356/12/5
f 359/12/5 356/12/5 355/12/5
f 360/12/5 357/12/5 359/12/5
f 362/12/5 359/12/5 358/12/5
f 362/12/5 361/12/5 360/12/5
f 362/12/5 360/12/5 359/12/5
f 363/12/5 361/12/5 362/12/5
f 364/12/5 361/12/5 363/12/5
f 365/12/5 361/12/5 364/12/5
f 367/12/5 364/12/5 363/12/5
f 368/12/5 364/12/5 367/12/5
f 370/12/5 367/12/5 366/12/5
f 370/12/5 369/12/5 368/12/5
f 370/12/5 368/12/5 367/12/5
f 371/12/5 369/12/5 370/12/5
f 372/12/5 369/12/5 371/12/5
f 373/12/5 369/12/5 372/12/5
f 374/12/5 372/12/5 371/12/5
f 375/12/5 372/12/5 374/12/5
f 376/12/5 372/12/5 375/12/5
f 377/12/5 372/12/5 376/12/5
f 379/12/5 376/12/5 375/12/5
f 380/12/5 376/12/5 379/12/5
f 380/12/5 379/12/5 378/12/5
f 381/12/5 376/12/5 380/12/5
f 382/12/5 380/12/5 378/12/5
f 383/12/5 380/12/5 382/12/5
f 386/12/5 385/12/5 384/12/5
f 387/12/5 385/12/5 386/12/5
f 390/12/5 389/12/5 388/12/5
f 391/12/5 389/12/5 390/12/5
f 394/12/5 393/12/5 392/12/5
f 395/12/5 393/12/5 394/12/5
f 400/7/5 397/7/5 396/7/5
f 401/12/5 398/12/5 397/12/5
f 401/7/5 397/7/5 400/7/5
f 402/7/5 399/7/5 398/7/5
f 402/12/5 398/12/5 401/12/5
f 403/7/5 399/7/5 402/7/5
f 405/12/5 401/12/5 400/12/5
f 405/12/5 402/12/5 401/12/5
f 405/12/5 403/12/5 402/12/5
f 406/12/5 403/12/5 405/12/5
f 408/12/5 406/12/5 405/12/5
f 408/12/5 407/12/5 406/12/5
f 408/12/5 405/12/5 404/12/5
f 409/12/5 407/12/5 408/12/5
f 412/12/5 411/12/5 410/12/5
f 413/12/5 411/12/5 412/12/5
f 414/12/5 411/12/5 413/12/5
f 415/12/5 411/12/5 414/12/5
f 416/12/5 412/12/5 410/12/5
f 417/12/5 412/12/5 416/12/5
f 418/5/5 413/5/5 412/5/5
f 418/12/5 412/12/5 417/12/5
f 419/10/5 414/10/5 413/10/5
f 419/5/5 413/5/5 418/5/5
f 420/2/5 415/2/5 414/2/5
f 420/10/5 414/10/5 419/10/5
f 421/2/5 415/2/5 420/2/5
f 422/12/5 411/12/5 415/12/5
f 422/2/5 415/2/5 421/2/5
f 423/12/5 411/12/5 422/12/5
f 424/4/5 418/4/5 417/4/5
f 424/4/5 419/4/5 418/4/5
f 425/4/5 419/4/5 424/4/5
f 426/8/5 420/8/5 419/8/5
f 426/4/5 419/4/5 425/4/5
f 427/12/5 421/12/5 420/12/5
f 427/8/5 420/8/5 426/8/5
f 428/6/5 422/6/5 421/6/5
f 428/12/5 421/12/5 427/12/5
f 429/6/5 422/6/5 428/6/5
f 430/4/5 426/4/5 425/4/5
f 430/12/5 425/12/5 424/12/5
f 431/10/5 427/10/5 426/10/5
f 431/4/5 426/4/5 430/4/5
f 432/3/5 428/3/5 427/3/5
f 432/10/5 427/10/5 431/10/5
f 433/12/5 429/12/5 428/12/5
f 433/3/5 428/3/5 432/3/5
f 434/12/5 430/12/5 424/12/5
f 434/12/5 431/12/5 430/12/5
f 435/8/5 432/8/5 431/8/5
f 435/12/5 431/12/5 434/12/5
f 436/1/5 433/1/5 432/1/5
f 436/8/5 432/8/5 435/8/5
f 437/12/5 429/12/5 433/12/5
f 437/1/5 433/1/5 436/1/5
f 438/12/5 434/12/5 424/12/5
f 438/3/5 435/3/5 434/3/5
f 439/8/5 436/8/5 435/8/5
f 439/3/5 435/3/5 438/3/5
f 440/12/5 437/12/5 436/12/5
f 440/8/5 436/8/5 439/8/5
f 441/12/5 429/12/5 437/12/5
f 441/12/5 437/12/5 440/12/5
f 443/12/5 438/12/5 424/12/5
f 443/12/5 439/12/5 438/12/5
f 444/12/5 439/12/5 443/12/5
f 445/9/5 440/9/5 439/9/5
f 445/12/5 439/12/5 444/12/5
f 446/3/5 441/3/5 440/3/5
f 446/9/5 440/9/5 445/9/5
f 447/12/5 429/12/5 441/12/5
f 447/3/5 441/3/5 446/3/5
f 448/12/5 429/12/5 447/12/5
f 450/12/5 444/12/5 443/12/5
f 450/1/5 445/1/5 444/1/5
f 450/12/5 443/12/5 442/12/5
f 451/11/5 446/11/5 445/11/5
f 451/1/5 445/1/5 450/1/5
f 452/12/5 448/12/5 447/12/5
f 452/11/5 446/11/5 451/11/5
f 452/12/5 449/12/5 448/12/5
f 452/12/5 447/12/5 446/12/5
f 453/12/5 451/12/5 450/12/5
f 453/12/5 450/12/5 442/12/5
f 453/12/5 452/12/5 451/12/5
f 454/12/5 449/12/5 452/12/5
f 454/12/5 452/12/5 453/12/5
f 457/12/5 456/12/5 455/12/5
f 458/12/5 456/12/5 457/12/5
f 459/12/5 456/12/5 458/12/5
f 460/12/5 456/12/5 459/12/5
f 461/12/5 459/12/5 458/12/5
f 462/12/5 459/12/5 461/12/5
f 465/12/5 464/12/5 463/12/5
f 466/12/5 464/12/5 465/12/5
f 469/12/5 468/12/5 467/12/5
f 470/12/5 468/12/5 469/12/5
f 471/12/6 472/12/6 474/12/6
f 474/12/6 472/12/6 475/12/6
f 473/12/6 474/12/6 478/12/6
f 475/12/6 476/12/6 478/12/6
f 474/12/6 475/12/6 478/12/6
f 478/12/6 476/12/6 479/12/6
f 477/12/6 478/12/6 481/12/6
f 479/12/6 480/12/6 481/12/6
f 478/12/6 479/12/6 481/12/6
f 481/12/6 480/12/6 482/12/6
f 482/12/6 480/12/6 483/12/6
f 483/12/6 480/12/6 484/12/6
f 482/12/6 483/12/6 486/12/6
f 486/12/6 483/12/6 487/12/6
f 485/12/6 486/12/6 489/12/6
f 487/12/6 488/12/6 489/12/6
f 486/12/6 487/12/6 489/12/6
f 489/12/6 488/12/6 490/12/6
f 490/12/6 488/12/6 491/12/6
f 491/12/6 488/12/6 492/12/6
f 490/12/6 491/12/6 493/12/6
f 493/12/6 491/12/6 494/12/6
f 494/12/6 491/12/6 495/12/6
f 495/12/6 491/12/6 496/12/6
f 494/12/6 495/12/6 497/12/6
f 497/12/6 495/12/6 498/12/6
f 499/12/6 500/12/6 501/12/6
f 501/12/6 500/12/6 502/12/6
f 503/12/6 504/12/6 505/12/6
f 505/12/6 504/12/6 506/12/6
f 507/12/6 508/12/6 510/12/6
f 510/12/6 508/12/6 511/12/6
f 509/12/6 510/12/6 511/12/6
f 511/12/6 508/12/6 512/12/6
f 509/12/6 511/12/6 513/12/6
f 513/12/6 511/12/6 514/12/6
f 515/7/6 516/7/6 519/7/6
f 516/12/6 517/12/6 520/12/6
f 519/7/6 516/7/6 520/7/6
f 517/7/6 518/7/6 521/7/6
f 520/12/6 517/12/6 521/12/6
f 521/7/6 518/7/6 522/7/6
f 519/12/6 520/12/6 524/12/6
f 520/12/6 521/12/6 524/12/6
f 521/12/6 522/12/6 524/12/6
f 524/12/6 522/12/6 525/12/6
f 524/12/6 525/12/6 527/12/6
f 525/12/6 526/12/6 527/12/6
f 523/12/6 524/12/6 527/12/6
f 527/12/6 526/12/6 528/12/6
f 529/12/6 530/12/6 535/12/6
f 530/5/6 531/5/6 536/5/6
f 535/12/6 530/12/6 536/12/6
f 531/10/6 532/10/6 537/10/6
f 536/5/6 531/5/6 537/5/6
f 532/2/6 533/2/6 538/2/6
f 537/10/6 532/10/6 538/10/6
f 538/2/6 533/2/6 539/2/6
f 533/12/6 534/12/6 540/12/6
f 539/2/6 533/2/6 540/2/6
f 529/12/6 535/12/6 541/12/6
f 541/12/6 535/12/6 542/12/6
f 535/4/6 536/4/6 543/4/6
f 542/12/6 535/12/6 543/12/6
f 536/4/6 537/4/6 543/4/6
f 543/4/6 537/4/6 544/4/6
f 537/8/6 538/8/6 545/8/6
f 544/4/6 537/4/6 545/4/6
f 538/12/6 539/12/6 546/12/6
f 545/8/6 538/8/6 546/8/6
f 539/6/6 540/6/6 547/6/6
f 546/12/6 539/12/6 547/12/6
f 540/12/6 534/12/6 548/12/6
f 547/6/6 540/6/6 548/6/6
f 548/12/6 534/12/6 549/12/6
f 549/12/6 534/12/6 550/12/6
f 544/4/6 545/4/6 551/4/6
f 543/12/6 544/12/6 551/12/6
f 542/12/6 543/12/6 551/12/6
f 545/10/6 546/10/6 552/10/6
f 551/4/6 545/4/6 552/4/6
f 546/3/6 547/3/6 553/3/6
f 552/10/6 546/10/6 553/10/6
f 548/12/6 549/12/6 554/12/6
f 553/3/6 547/3/6 554/3/6
f 547/12/6 548/12/6 554/12/6
f 551/12/6 552/12/6 555/12/6
f 542/12/6 551/12/6 555/12/6
f 552/8/6 553/8/6 556/8/6
f 555/12/6 552/12/6 556/12/6
f 553/1/6 554/1/6 557/1/6
f 556/8/6 553/8/6 557/8/6
f 554/12/6 549/12/6 558/12/6
f 557/1/6 554/1/6 558/1/6
f 542/12/6 555/12/6 560/12/6
f 555/3/6 556/3/6 561/3/6
f 560/12/6 555/12/6 561/12/6
f 556/8/6 557/8/6 562/8/6
f 561/3/6 556/3/6 562/3/6
f 557/12/6 558/12/6 563/12/6
f 562/8/6 557/8/6 563/8/6
f 558/12/6 549/12/6 564/12/6
f 563/12/6 558/12/6 564/12/6
f 564/12/6 549/12/6 565/12/6
f 560/12/6 561/12/6 567/12/6
f 559/12/6 560/12/6 567/12/6
f 561/12/6 562/12/6 567/12/6
f 562/9/6 563/9/6 568/9/6
f 567/12/6 562/12/6 568/12/6
f 563/3/6 564/3/6 569/3/6
f 568/9/6 563/9/6 569/9/6
f 565/12/6 566/12/6 570/12/6
f 569/3/6 564/3/6 570/3/6
f 564/12/6 565/12/6 570/12/6
f 559/12/6 567/12/6 571/12/6
f 567/1/6 568/1/6 572/1/6
f 571/12/6 567/12/6 572/12/6
f 568/11/6 569/11/6 573/11/6
f 572/1/6 568/1/6 573/1/6
f 569/12/6 570/12/6 574/12/6
f 573/11/6 569/11/6 574/11/6
f 570/12/6 566/12/6 575/12/6
f 574/12/6 570/12/6 575/12/6
f 576/12/6 577/12/6 578/12/6
f 578/12/6 577/12/6 579/12/6
f 579/12/6 577/12/6 580/12/6
f 580/12/6 577/12/6 581/12/6
f 579/12/6 580/12/6 582/12/6
f 582/12/6 580/12/6 583/12/6
f 584/12/6 585/12/6 586/12/6
f 586/12/6 585/12/6 587/12/6
f 588/12/6 589/12/6 590/12/6
f 590/12/6 589/12/6 591/12/6
