# MagicaVoxel @ Ephtracy

# material
mtllib Rat.mtl
usemtl palette

# normals
vn -1 0 0
vn 1 0 0
vn 0 0 1
vn 0 0 -1
vn 0 -1 0
vn 0 1 0

# texcoords
vt 0.560547 0.5
vt 0.841797 0.5
vt 0.869141 0.5
vt 0.880859 0.5
vt 0.958984 0.5
vt 0.962891 0.5
vt 0.966797 0.5
vt 0.986328 0.5
vt 0.990234 0.5
vt 0.994141 0.5

# verts
v -4 0 9
v -4 0 1
v -4 0 -3
v -4 0 -11
v -4 4 9
v -4 4 7
v -4 4 3
v -4 4 1
v -4 4 -3
v -4 4 -5
v -4 4 -9
v -4 4 -11
v -4 6 7
v -4 6 3
v -4 6 -5
v -4 6 -9
v -2 0 13
v -2 0 9
v -2 0 1
v -2 0 -3
v -2 0 -11
v -2 0 -13
v -2 0 -17
v -2 0 -19
v -2 2 13
v -2 2 11
v -2 2 -17
v -2 2 -19
v -2 4 13
v -2 4 11
v -2 4 9
v -2 4 1
v -2 4 -3
v -2 4 -11
v -2 4 -13
v 0 0 17
v 0 0 13
v 0 0 -13
v 0 0 -17
v 0 2 17
v 0 2 13
v 0 2 -13
v 0 2 -17
v 0 0 -17
v 0 0 -19
v 0 2 -17
v 0 2 -19
v 2 0 17
v 2 0 13
v 2 0 -13
v 2 0 -17
v 2 2 17
v 2 2 13
v 2 2 -13
v 2 2 -17
v 4 0 13
v 4 0 9
v 4 0 1
v 4 0 -3
v 4 0 -11
v 4 0 -13
v 4 2 13
v 4 2 11
v 4 3 1
v 4 4 13
v 4 4 11
v 4 4 9
v 4 4 1
v 4 4 -3
v 4 4 -11
v 4 4 -13
v 6 0 9
v 6 0 1
v 6 0 -3
v 6 0 -11
v 6 4 9
v 6 4 7
v 6 4 3
v 6 4 1
v 6 4 -3
v 6 4 -5
v 6 4 -9
v 6 4 -11
v 6 6 7
v 6 6 3
v 6 6 -5
v 6 6 -9
v 0 0 17
v 0 2 17
v 2 0 17
v 2 2 17
v -2 0 13
v -2 2 13
v -2 4 13
v 0 0 13
v 0 2 13
v 0 4 13
v 2 0 13
v 2 2 13
v 2 4 13
v 4 0 13
v 4 2 13
v 4 4 13
v -4 0 9
v -4 4 9
v -2 0 9
v -2 4 9
v 4 0 9
v 4 4 9
v 6 0 9
v 6 4 9
v -4 4 7
v -4 6 7
v 6 4 7
v 6 6 7
v -4 0 -3
v -4 4 -3
v -2 0 -3
v -2 4 -3
v 4 0 -3
v 4 4 -3
v 6 0 -3
v 6 4 -3
v -4 4 -5
v -4 6 -5
v 1 4 -5
v 2 4 -5
v 3 4 -5
v 6 4 -5
v 6 6 -5
v -2 0 -17
v -2 2 -17
v 0 0 -17
v 0 2 -17
v -4 4 3
v -4 6 3
v 0 4 3
v 1 4 3
v 2 4 3
v 4 4 3
v 6 4 3
v 6 6 3
v -4 0 1
v -4 4 1
v -2 0 1
v -2 4 1
v 4 0 1
v 4 3 1
v 4 4 1
v 5 3 1
v 5 4 1
v 6 0 1
v 6 4 1
v -4 4 -9
v -4 6 -9
v 6 4 -9
v 6 6 -9
v -4 0 -11
v -4 4 -11
v -2 0 -11
v -2 4 -11
v 4 0 -11
v 4 4 -11
v 6 0 -11
v 6 4 -11
v -2 0 -13
v -2 4 -13
v 0 0 -13
v 0 2 -13
v 2 0 -13
v 2 2 -13
v 4 0 -13
v 4 4 -13
v 0 0 -17
v 0 2 -17
v 2 0 -17
v 2 2 -17
v -2 0 -19
v -2 2 -19
v 0 0 -19
v 0 2 -19
v 0 0 17
v 2 0 17
v -2 0 13
v 0 0 13
v 2 0 13
v 4 0 13
v -4 0 9
v -2 0 9
v 4 0 9
v 6 0 9
v -4 0 1
v -2 0 1
v 4 0 1
v 6 0 1
v -4 0 -3
v -2 0 -3
v 4 0 -3
v 6 0 -3
v -4 0 -11
v -2 0 -11
v 4 0 -11
v 6 0 -11
v -2 0 -13
v 0 0 -13
v 2 0 -13
v 4 0 -13
v -2 0 -17
v 0 0 -17
v 2 0 -17
v -2 0 -19
v 0 0 -19
v 0 2 17
v 2 2 17
v 0 2 13
v 2 2 13
v 0 2 -13
v 2 2 -13
v -2 2 -17
v 0 2 -17
v 2 2 -17
v -2 2 -19
v 0 2 -19
v -2 4 13
v 0 4 13
v 2 4 13
v 4 4 13
v -2 4 11
v 0 4 11
v 2 4 11
v 4 4 11
v -4 4 9
v -2 4 9
v 4 4 9
v 6 4 9
v -4 4 7
v 6 4 7
v -4 4 3
v 0 4 3
v 1 4 3
v 2 4 3
v 4 4 3
v 6 4 3
v -1 4 2
v 0 4 2
v 1 4 2
v 2 4 2
v 3 4 2
v 4 4 2
v 5 4 2
v -4 4 1
v -2 4 1
v -1 4 1
v 0 4 1
v 1 4 1
v 2 4 1
v 3 4 1
v 4 4 1
v 5 4 1
v 6 4 1
v -1 4 -0
v 0 4 -0
v 1 4 -0
v 2 4 -0
v 3 4 -0
v -1 4 -1
v 0 4 -1
v 1 4 -1
v 2 4 -1
v 3 4 -1
v 0 4 -2
v 1 4 -2
v 2 4 -2
v -4 4 -3
v -2 4 -3
v 0 4 -3
v 1 4 -3
v 2 4 -3
v 3 4 -3
v 4 4 -3
v 6 4 -3
v 0 4 -4
v 1 4 -4
v 2 4 -4
v 3 4 -4
v -4 4 -5
v 1 4 -5
v 2 4 -5
v 3 4 -5
v 6 4 -5
v -4 4 -9
v 6 4 -9
v -4 4 -11
v -2 4 -11
v 4 4 -11
v 6 4 -11
v -2 4 -13
v 4 4 -13
v -4 6 7
v 6 6 7
v -4 6 3
v 6 6 3
v -4 6 -5
v 6 6 -5
v -4 6 -9
v 6 6 -9

# faces
f 5/9/1 2/9/1 1/9/1
f 6/9/1 2/9/1 5/9/1
f 7/9/1 2/9/1 6/9/1
f 8/9/1 2/9/1 7/9/1
f 9/9/1 4/9/1 3/9/1
f 10/9/1 4/9/1 9/9/1
f 11/9/1 4/9/1 10/9/1
f 12/9/1 4/9/1 11/9/1
f 13/9/1 7/9/1 6/9/1
f 14/9/1 7/9/1 13/9/1
f 15/9/1 11/9/1 10/9/1
f 16/9/1 11/9/1 15/9/1
f 25/9/1 18/9/1 17/9/1
f 26/9/1 18/9/1 25/9/1
f 27/9/1 24/9/1 23/9/1
f 28/9/1 24/9/1 27/9/1
f 29/4/1 26/4/1 25/4/1
f 30/9/1 18/9/1 26/9/1
f 30/4/1 26/4/1 29/4/1
f 31/9/1 18/9/1 30/9/1
f 32/9/1 20/9/1 19/9/1
f 33/9/1 20/9/1 32/9/1
f 34/9/1 22/9/1 21/9/1
f 35/9/1 22/9/1 34/9/1
f 40/9/1 37/9/1 36/9/1
f 41/9/1 37/9/1 40/9/1
f 42/9/1 39/9/1 38/9/1
f 43/9/1 39/9/1 42/9/1
f 44/9/2 45/9/2 46/9/2
f 46/9/2 45/9/2 47/9/2
f 48/9/2 49/9/2 52/9/2
f 52/9/2 49/9/2 53/9/2
f 50/9/2 51/9/2 54/9/2
f 54/9/2 51/9/2 55/9/2
f 56/9/2 57/9/2 62/9/2
f 62/9/2 57/9/2 63/9/2
f 58/9/2 59/9/2 64/9/2
f 62/4/2 63/4/2 65/4/2
f 63/9/2 57/9/2 66/9/2
f 65/4/2 63/4/2 66/4/2
f 66/9/2 57/9/2 67/9/2
f 64/9/2 59/9/2 68/9/2
f 68/9/2 59/9/2 69/9/2
f 60/9/2 61/9/2 70/9/2
f 70/9/2 61/9/2 71/9/2
f 72/9/2 73/9/2 76/9/2
f 76/9/2 73/9/2 77/9/2
f 77/9/2 73/9/2 78/9/2
f 78/9/2 73/9/2 79/9/2
f 74/9/2 75/9/2 80/9/2
f 80/9/2 75/9/2 81/9/2
f 81/9/2 75/9/2 82/9/2
f 82/9/2 75/9/2 83/9/2
f 77/9/2 78/9/2 84/9/2
f 84/9/2 78/9/2 85/9/2
f 81/9/2 82/9/2 86/9/2
f 86/9/2 82/9/2 87/9/2
f 90/9/3 89/9/3 88/9/3
f 91/9/3 89/9/3 90/9/3
f 95/9/3 93/9/3 92/9/3
f 96/4/3 94/4/3 93/4/3
f 96/9/3 93/9/3 95/9/3
f 97/4/3 94/4/3 96/4/3
f 99/10/3 97/10/3 96/10/3
f 100/10/3 97/10/3 99/10/3
f 101/9/3 99/9/3 98/9/3
f 102/4/3 100/4/3 99/4/3
f 102/9/3 99/9/3 101/9/3
f 103/4/3 100/4/3 102/4/3
f 106/9/3 105/9/3 104/9/3
f 107/9/3 105/9/3 106/9/3
f 110/9/3 109/9/3 108/9/3
f 111/9/3 109/9/3 110/9/3
f 114/9/3 113/9/3 112/9/3
f 115/9/3 113/9/3 114/9/3
f 118/9/3 117/9/3 116/9/3
f 119/9/3 117/9/3 118/9/3
f 122/9/3 121/9/3 120/9/3
f 123/9/3 121/9/3 122/9/3
f 126/9/3 125/9/3 124/9/3
f 127/9/3 125/9/3 126/9/3
f 128/9/3 125/9/3 127/9/3
f 129/9/3 125/9/3 128/9/3
f 130/9/3 125/9/3 129/9/3
f 133/9/3 132/9/3 131/9/3
f 134/9/3 132/9/3 133/9/3
f 135/9/4 136/9/4 137/9/4
f 137/9/4 136/9/4 138/9/4
f 138/9/4 136/9/4 139/9/4
f 139/9/4 136/9/4 140/9/4
f 140/9/4 136/9/4 141/9/4
f 141/9/4 136/9/4 142/9/4
f 143/9/4 144/9/4 145/9/4
f 145/9/4 144/9/4 146/9/4
f 147/9/4 148/9/4 150/9/4
f 148/1/4 149/1/4 150/1/4
f 150/1/4 149/1/4 151/1/4
f 147/9/4 150/9/4 152/9/4
f 150/9/4 151/9/4 152/9/4
f 152/9/4 151/9/4 153/9/4
f 154/9/4 155/9/4 156/9/4
f 156/9/4 155/9/4 157/9/4
f 158/9/4 159/9/4 160/9/4
f 160/9/4 159/9/4 161/9/4
f 162/9/4 163/9/4 164/9/4
f 164/9/4 163/9/4 165/9/4
f 166/9/4 167/9/4 168/9/4
f 168/9/4 167/9/4 169/9/4
f 169/9/4 167/9/4 171/9/4
f 170/9/4 171/9/4 172/9/4
f 171/9/4 167/9/4 173/9/4
f 172/9/4 171/9/4 173/9/4
f 174/9/4 175/9/4 176/9/4
f 176/9/4 175/9/4 177/9/4
f 178/9/4 179/9/4 180/9/4
f 180/9/4 179/9/4 181/9/4
f 185/9/5 183/9/5 182/9/5
f 186/9/5 183/9/5 185/9/5
f 189/9/5 185/9/5 184/9/5
f 190/9/5 187/9/5 186/9/5
f 192/9/5 189/9/5 188/9/5
f 193/9/5 185/9/5 189/9/5
f 193/9/5 189/9/5 192/9/5
f 194/9/5 191/9/5 190/9/5
f 194/9/5 190/9/5 186/9/5
f 195/9/5 191/9/5 194/9/5
f 197/9/5 185/9/5 193/9/5
f 198/9/5 194/9/5 186/9/5
f 200/9/5 197/9/5 196/9/5
f 201/9/5 185/9/5 197/9/5
f 201/9/5 197/9/5 200/9/5
f 202/9/5 199/9/5 198/9/5
f 202/9/5 198/9/5 186/9/5
f 203/9/5 199/9/5 202/9/5
f 204/9/5 185/9/5 201/9/5
f 205/2/5 186/2/5 185/2/5
f 205/9/5 185/9/5 204/9/5
f 206/9/5 202/9/5 186/9/5
f 206/2/5 186/2/5 205/2/5
f 207/9/5 202/9/5 206/9/5
f 209/9/5 206/9/5 205/9/5
f 210/9/5 206/9/5 209/9/5
f 211/9/5 209/9/5 208/9/5
f 212/9/5 209/9/5 211/9/5
f 213/9/6 214/9/6 215/9/6
f 215/9/6 214/9/6 216/9/6
f 217/9/6 218/9/6 220/9/6
f 220/9/6 218/9/6 221/9/6
f 219/9/6 220/9/6 222/9/6
f 222/9/6 220/9/6 223/9/6
f 224/4/6 225/4/6 228/4/6
f 225/10/6 226/10/6 229/10/6
f 228/4/6 225/4/6 229/4/6
f 226/4/6 227/4/6 230/4/6
f 229/10/6 226/10/6 230/10/6
f 230/4/6 227/4/6 231/4/6
f 228/9/6 229/9/6 233/9/6
f 229/9/6 230/9/6 233/9/6
f 230/9/6 231/9/6 233/9/6
f 233/9/6 231/9/6 234/9/6
f 233/9/6 234/9/6 236/9/6
f 234/9/6 235/9/6 236/9/6
f 232/9/6 233/9/6 236/9/6
f 236/9/6 235/9/6 237/9/6
f 238/9/6 239/9/6 244/9/6
f 239/1/6 240/1/6 245/1/6
f 244/9/6 239/9/6 245/9/6
f 240/6/6 241/6/6 246/6/6
f 245/1/6 240/1/6 246/1/6
f 241/1/6 242/1/6 247/1/6
f 246/6/6 241/6/6 247/6/6
f 247/1/6 242/1/6 248/1/6
f 242/9/6 243/9/6 249/9/6
f 248/1/6 242/1/6 249/1/6
f 249/9/6 243/9/6 250/9/6
f 238/9/6 244/9/6 251/9/6
f 251/9/6 244/9/6 252/9/6
f 244/1/6 245/1/6 253/1/6
f 252/9/6 244/9/6 253/9/6
f 245/9/6 246/9/6 254/9/6
f 253/1/6 245/1/6 254/1/6
f 246/6/6 247/6/6 255/6/6
f 254/9/6 246/9/6 255/9/6
f 247/7/6 248/7/6 256/7/6
f 255/6/6 247/6/6 256/6/6
f 248/9/6 249/9/6 257/9/6
f 256/7/6 248/7/6 257/7/6
f 249/1/6 250/1/6 258/1/6
f 257/9/6 249/9/6 258/9/6
f 250/9/6 243/9/6 259/9/6
f 258/1/6 250/1/6 259/1/6
f 259/9/6 243/9/6 260/9/6
f 252/9/6 253/9/6 261/9/6
f 253/9/6 254/9/6 261/9/6
f 254/3/6 255/3/6 262/3/6
f 261/9/6 254/9/6 262/9/6
f 255/5/6 256/5/6 263/5/6
f 262/3/6 255/3/6 263/3/6
f 256/3/6 257/3/6 264/3/6
f 263/5/6 256/5/6 264/5/6
f 257/9/6 258/9/6 265/9/6
f 264/3/6 257/3/6 265/3/6
f 252/9/6 261/9/6 266/9/6
f 261/3/6 262/3/6 266/3/6
f 262/9/6 263/9/6 267/9/6
f 266/3/6 262/3/6 267/3/6
f 263/7/6 264/7/6 268/7/6
f 267/9/6 263/9/6 268/9/6
f 264/9/6 265/9/6 269/9/6
f 268/7/6 264/7/6 269/7/6
f 265/9/6 258/9/6 270/9/6
f 269/9/6 265/9/6 270/9/6
f 266/9/6 267/9/6 271/9/6
f 267/2/6 268/2/6 271/2/6
f 268/5/6 269/5/6 272/5/6
f 271/2/6 268/2/6 272/2/6
f 269/3/6 270/3/6 273/3/6
f 272/5/6 269/5/6 273/5/6
f 266/9/6 271/9/6 275/9/6
f 252/9/6 266/9/6 275/9/6
f 271/9/6 272/9/6 275/9/6
f 275/9/6 272/9/6 276/9/6
f 272/7/6 273/7/6 277/7/6
f 276/9/6 272/9/6 277/9/6
f 273/3/6 270/3/6 278/3/6
f 277/7/6 273/7/6 278/7/6
f 270/9/6 258/9/6 279/9/6
f 278/3/6 270/3/6 279/3/6
f 279/9/6 258/9/6 280/9/6
f 276/1/6 277/1/6 282/1/6
f 275/9/6 276/9/6 282/9/6
f 274/9/6 275/9/6 282/9/6
f 277/8/6 278/8/6 283/8/6
f 282/1/6 277/1/6 283/1/6
f 280/9/6 281/9/6 284/9/6
f 283/8/6 278/8/6 284/8/6
f 279/9/6 280/9/6 284/9/6
f 278/9/6 279/9/6 284/9/6
f 284/9/6 281/9/6 285/9/6
f 282/9/6 283/9/6 286/9/6
f 274/9/6 282/9/6 286/9/6
f 283/8/6 284/8/6 287/8/6
f 286/9/6 283/9/6 287/9/6
f 284/1/6 285/1/6 288/1/6
f 287/8/6 284/8/6 288/8/6
f 285/9/6 281/9/6 289/9/6
f 288/1/6 285/1/6 289/1/6
f 289/9/6 281/9/6 290/9/6
f 291/9/6 292/9/6 293/9/6
f 293/9/6 292/9/6 294/9/6
f 294/9/6 292/9/6 295/9/6
f 295/9/6 292/9/6 296/9/6
f 294/9/6 295/9/6 297/9/6
f 297/9/6 295/9/6 298/9/6
f 299/9/6 300/9/6 301/9/6
f 301/9/6 300/9/6 302/9/6
f 303/9/6 304/9/6 305/9/6
f 305/9/6 304/9/6 306/9/6
